<svg width="48" height="48" viewBox="0 0 48 48" fill="none" xmlns="http://www.w3.org/2000/svg">
<g id="Behance">
<g id="Behance_2">
<rect id="Rectangle" width="48" height="48" rx="24" fill="#13317D" fill-opacity="0.4"/>
<path id="Vector" d="M20.6537 19C21.1155 19 21.5418 19.0353 21.9326 19.1413C22.3234 19.212 22.6431 19.3534 22.9273 19.53C23.2115 19.7067 23.4246 19.9541 23.5667 20.2721C23.7088 20.5901 23.7799 20.9788 23.7799 21.4028C23.7799 21.8975 23.6733 22.3216 23.4246 22.6396C23.2115 22.9576 22.8562 23.2403 22.4299 23.4523C23.0339 23.629 23.4957 23.947 23.7799 24.371C24.0641 24.7951 24.2417 25.3251 24.2417 25.9258C24.2417 26.4205 24.1351 26.8445 23.9575 27.1979C23.7799 27.5512 23.4957 27.8693 23.176 28.0813C22.8562 28.2933 22.4655 28.47 22.0392 28.576C21.6129 28.682 21.1866 28.7527 20.7603 28.7527H16V19H20.6537ZM20.3695 22.9576C20.7603 22.9576 21.08 22.8516 21.3287 22.6749C21.5774 22.4982 21.6839 22.1802 21.6839 21.7915C21.6839 21.5795 21.6484 21.3675 21.5774 21.2261C21.5063 21.0848 21.3997 20.9788 21.2576 20.8728C21.1155 20.8021 20.9734 20.7314 20.7958 20.6961C20.6182 20.6608 20.4406 20.6608 20.2274 20.6608H18.167V22.9576H20.3695ZM20.4761 27.1272C20.6892 27.1272 20.9024 27.0919 21.08 27.0565C21.2576 27.0212 21.4353 26.9505 21.5774 26.8445C21.7195 26.7385 21.826 26.6325 21.9326 26.4558C22.0037 26.2792 22.0747 26.0671 22.0747 25.8198C22.0747 25.3251 21.9326 24.9717 21.6484 24.7244C21.3642 24.5124 20.9734 24.4064 20.5116 24.4064H18.167V27.1272H20.4761ZM27.3323 27.0919C27.6165 27.3746 28.0428 27.5159 28.6112 27.5159C29.002 27.5159 29.3572 27.4099 29.6414 27.2332C29.9256 27.0212 30.1033 26.8092 30.1743 26.5972H31.915C31.6308 27.4452 31.2045 28.0459 30.6361 28.4346C30.0677 28.788 29.3928 29 28.5757 29C28.0073 29 27.51 28.894 27.0481 28.7173C26.5863 28.5406 26.2311 28.2933 25.9114 27.9399C25.5916 27.6219 25.343 27.2332 25.2009 26.7739C25.0232 26.3145 24.9522 25.8198 24.9522 25.2544C24.9522 24.7244 25.0232 24.2297 25.2009 23.7703C25.3785 23.311 25.6272 22.9223 25.9469 22.5689C26.2666 22.2509 26.6574 21.9682 27.0837 21.7915C27.5455 21.6148 28.0073 21.5088 28.5757 21.5088C29.1796 21.5088 29.7125 21.6148 30.1743 21.8622C30.6361 22.1095 30.9914 22.3922 31.2756 22.8163C31.5598 23.2049 31.7729 23.6643 31.915 24.159C31.9861 24.6537 32.0216 25.1484 31.9861 25.7138H26.835C26.835 26.2792 27.0481 26.8092 27.3323 27.0919ZM29.5704 23.3816C29.3217 23.1343 28.9309 22.9929 28.4691 22.9929C28.1494 22.9929 27.9007 23.0636 27.6876 23.1696C27.4744 23.2756 27.3323 23.417 27.1902 23.5583C27.0481 23.6996 26.9771 23.8763 26.9416 24.053C26.906 24.2297 26.8705 24.371 26.8705 24.5124H30.0677C29.9967 23.9823 29.8191 23.629 29.5704 23.3816ZM26.4442 19.6714H30.423V20.6254H26.4442V19.6714Z" fill="#A6B1CE"/>
</g>
</g>
</svg>
