<svg width="54" height="54" viewBox="0 0 54 54" fill="none" xmlns="http://www.w3.org/2000/svg">
<circle cx="27" cy="27" r="27" fill="#13317D" fill-opacity="0.4"/>
<g clip-path="url(#clip0)">
<path d="M32.8594 18.2109H28.1719C25.9105 18.2109 24.0703 20.0511 24.0703 22.3125C24.0703 24.3753 25.601 26.0873 27.5859 26.3723V28.1719C27.5859 28.4087 27.7284 28.6228 27.9476 28.7132C28.1637 28.8034 28.4172 28.755 28.5862 28.5861L30.7582 26.4141H32.8594C35.1207 26.4141 37 24.5739 37 22.3125C37 20.0511 35.1207 18.2109 32.8594 18.2109ZM28.1719 22.8984C27.8482 22.8984 27.5859 22.636 27.5859 22.3124C27.5859 21.9888 27.8482 21.7265 28.1719 21.7265C28.4955 21.7265 28.7578 21.9888 28.7578 22.3124C28.7578 22.636 28.4955 22.8984 28.1719 22.8984ZM30.5156 22.8984C30.192 22.8984 29.9297 22.636 29.9297 22.3124C29.9297 21.9888 30.192 21.7265 30.5156 21.7265C30.8392 21.7265 31.1016 21.9888 31.1016 22.3124C31.1016 22.636 30.8392 22.8984 30.5156 22.8984ZM32.8594 22.8984C32.5357 22.8984 32.2734 22.636 32.2734 22.3124C32.2734 21.9888 32.5357 21.7265 32.8594 21.7265C33.183 21.7265 33.4453 21.9888 33.4453 22.3124C33.4453 22.636 33.183 22.8984 32.8594 22.8984Z" fill="#A6B1CE"/>
<path d="M30.1641 35.7891C31.1334 35.7891 31.9219 35.0005 31.9219 34.0312V31.6875C31.9219 31.4352 31.7605 31.2114 31.5213 31.1319L28.0139 29.96C27.8423 29.9022 27.6546 29.9285 27.5036 30.0281L26.0124 31.022C24.4331 30.269 22.5591 28.395 21.8061 26.8157L22.8 25.3245C22.9001 25.174 22.9253 24.9858 22.8681 24.8141L21.6962 21.3068C21.6167 21.0676 21.393 20.9062 21.1406 20.9062H18.7578C17.7885 20.9062 17 21.6865 17 22.6558C17 29.4067 23.4132 35.7891 30.1641 35.7891Z" fill="#A6B1CE"/>
</g>
<defs>
<clipPath id="clip0">
<rect width="20" height="20" fill="white" transform="translate(17 17)"/>
</clipPath>
</defs>
</svg>
