<svg width="54" height="54" viewBox="0 0 54 54" fill="none" xmlns="http://www.w3.org/2000/svg">
<circle cx="27" cy="26.9999" r="27" fill="#13317D" fill-opacity="0.4"/>
<path d="M25.2422 27.5859H28.7578V28.7578H25.2422V27.5859Z" fill="#A6B1CE"/>
<path d="M33.2257 28.7578H29.9297V29.3437C29.9297 29.6675 29.6675 29.9296 29.3438 29.9296H24.6562C24.3325 29.9296 24.0703 29.6675 24.0703 29.3437V28.7578H20.7743C20.0167 28.7578 19.3466 28.2748 19.1068 27.5561L17 21.2347V34.0312C17 35.0004 17.7886 35.789 18.7578 35.789H35.2422C36.2114 35.789 37 35.0004 37 34.0312V21.2352L34.8931 27.5561C34.6534 28.2748 33.9833 28.7578 33.2257 28.7578Z" fill="#A6B1CE"/>
<path d="M29.3437 18.2109H24.6562C23.6869 18.2109 22.8983 18.9995 22.8983 19.9687V20.5546H18.0081L20.218 27.1853C20.2981 27.425 20.5218 27.5859 20.7742 27.5859H24.0702V26.9999C24.0702 26.6761 24.3324 26.414 24.6562 26.414H29.3437C29.6674 26.414 29.9296 26.6761 29.9296 26.9999V27.5859H33.2256C33.478 27.5859 33.7017 27.425 33.7818 27.1853L35.9919 20.5546H31.1015V19.9687C31.1015 18.9995 30.3129 18.2109 29.3437 18.2109ZM24.0702 20.5546V19.9687C24.0702 19.6454 24.3328 19.3828 24.6562 19.3828H29.3437C29.667 19.3828 29.9296 19.6454 29.9296 19.9687V20.5546H24.0702Z" fill="#A6B1CE"/>
</svg>
