<svg width="54" height="54" viewBox="0 0 54 54" fill="none" xmlns="http://www.w3.org/2000/svg">
<circle cx="27" cy="26.9999" r="27" fill="#13317D" fill-opacity="0.4"/>
<g clip-path="url(#clip0)">
<path d="M23.1914 20.4036C23.4718 20.2416 23.568 19.8835 23.406 19.6031L22.8201 18.588C22.6576 18.3071 22.2976 18.2103 22.0196 18.3734C21.7392 18.5354 21.643 18.8935 21.805 19.1739L22.3909 20.189C22.5546 20.4717 22.9141 20.5637 23.1914 20.4036Z" fill="#A6B1CE"/>
<path d="M19.603 30.594L18.5879 31.1799C18.3075 31.3419 18.2114 31.7 18.3733 31.9804C18.5371 32.2631 18.8966 32.3551 19.1739 32.195L20.1889 31.609C20.4693 31.4471 20.5655 31.0889 20.4035 30.8085C20.241 30.5287 19.8822 30.4326 19.603 30.594Z" fill="#A6B1CE"/>
<path d="M34.3968 23.4059L35.4118 22.82C35.6922 22.658 35.7883 22.2999 35.6264 22.0195C35.4644 21.7391 35.1046 21.6429 34.8259 21.8049L33.8108 22.3908C33.5304 22.5528 33.4343 22.911 33.5962 23.1913C33.76 23.474 34.1194 23.5661 34.3968 23.4059Z" fill="#A6B1CE"/>
<path d="M33.8108 31.6091L34.8259 32.195C35.1035 32.3553 35.4629 32.2626 35.6264 31.9804C35.7883 31.7 35.6922 31.3418 35.4118 31.1799L34.3967 30.594C34.1169 30.4326 33.7581 30.5287 33.5962 30.8085C33.4343 31.0889 33.5304 31.4471 33.8108 31.6091Z" fill="#A6B1CE"/>
<path d="M20.1892 22.3908L19.1741 21.8049C18.8943 21.6429 18.5355 21.7391 18.3736 22.0195C18.2117 22.2999 18.3078 22.6581 18.5881 22.82L19.6032 23.4059C19.8809 23.5663 20.2402 23.4736 20.4037 23.1913C20.5656 22.911 20.4695 22.5528 20.1892 22.3908Z" fill="#A6B1CE"/>
<path d="M31.6091 20.189L32.1951 19.1739C32.357 18.8935 32.2609 18.5353 31.9805 18.3734C31.7001 18.2103 31.3419 18.3071 31.18 18.588L30.5941 19.6031C30.4321 19.8835 30.5282 20.2417 30.8086 20.4036C31.0863 20.5639 31.4456 20.4712 31.6091 20.189Z" fill="#A6B1CE"/>
<path d="M27.5859 18.7968V17.5859C27.5859 17.262 27.3239 16.9999 27 16.9999C26.6761 16.9999 26.4141 17.262 26.4141 17.5859V18.7968C26.4141 19.1207 26.6761 19.3828 27 19.3828C27.3239 19.3828 27.5859 19.1207 27.5859 18.7968Z" fill="#A6B1CE"/>
<path d="M17.5859 27.5859H18.7969C19.1207 27.5859 19.3828 27.3238 19.3828 26.9999C19.3828 26.6761 19.1207 26.414 18.7969 26.414H17.5859C17.2621 26.414 17 26.6761 17 26.9999C17 27.3238 17.2621 27.5859 17.5859 27.5859Z" fill="#A6B1CE"/>
<path d="M36.4141 26.414H35.2031C34.8793 26.414 34.6172 26.6761 34.6172 26.9999C34.6172 27.3238 34.8793 27.5859 35.2031 27.5859H36.4141C36.7379 27.5859 37 27.3238 37 26.9999C37 26.6761 36.7379 26.414 36.4141 26.414Z" fill="#A6B1CE"/>
<path d="M27.5859 27.1384L27 25.9666L26.4141 27.1384V27.5859H27.5859V27.1384Z" fill="#A6B1CE"/>
<path d="M26.4141 28.7578H27.5859V31.1015H26.4141V28.7578Z" fill="#A6B1CE"/>
<path d="M20.6525 25.863C20.284 28.0065 20.9936 30.1722 22.5517 31.6571C23.517 32.5767 24.0703 33.9083 24.0703 35.2421C24.0703 36.2114 24.8588 36.9999 25.8281 36.9999H28.1719C29.1412 36.9999 29.9297 36.2114 29.9297 35.2421C29.9297 33.9083 30.483 32.5767 31.4477 31.6577C32.7358 30.4309 33.4453 28.7766 33.4453 26.9999C33.4453 23.459 30.5956 20.5764 27.0248 20.557C23.7272 20.5391 21.1574 22.925 20.6525 25.863ZM25.2422 26.9999C25.2422 26.909 25.2634 26.8191 25.304 26.7379L26.4759 24.3941C26.675 23.997 27.325 23.997 27.5241 24.3941L28.696 26.7379C28.7366 26.8191 28.7578 26.909 28.7578 26.9999V31.6874C28.7578 32.0113 28.4957 32.2734 28.1719 32.2734H25.8281C25.5043 32.2734 25.2422 32.0113 25.2422 31.6874V26.9999Z" fill="#A6B1CE"/>
</g>
<defs>
<clipPath id="clip0">
<rect width="20" height="20" fill="white" transform="translate(17 16.9999)"/>
</clipPath>
</defs>
</svg>
