<svg width="54" height="54" viewBox="0 0 54 54" fill="none" xmlns="http://www.w3.org/2000/svg">
<circle cx="27" cy="26.9999" r="27" fill="#13317D" fill-opacity="0.4"/>
<g clip-path="url(#clip0)">
<path d="M23.4515 34.7602C23.4515 35.2672 23.0367 35.6819 22.5298 35.6819H18.7202C18.2133 35.6819 17.7986 35.2672 17.7986 34.7602V30.582C17.7986 30.0751 18.2133 29.6604 18.7202 29.6604H22.5298C23.0367 29.6604 23.4515 30.0751 23.4515 30.582V34.7602Z" fill="#A6B1CE"/>
<path d="M30.2259 34.7602C30.2259 35.2672 29.8111 35.6819 29.3042 35.6819H25.4947C24.9877 35.6819 24.573 35.2672 24.573 34.7602V28.37C24.573 27.8631 24.9877 27.4484 25.4947 27.4484H29.3042C29.8111 27.4484 30.2259 27.8631 30.2259 28.37V34.7602Z" fill="#A6B1CE"/>
<path d="M37 34.7602C37 35.2672 36.5853 35.6819 36.0784 35.6819H32.2688C31.7619 35.6819 31.3472 35.2672 31.3472 34.7602V25.9123C31.3472 25.4053 31.7619 24.9906 32.2688 24.9906H36.0784C36.5853 24.9906 37 25.4053 37 25.9123V34.7602Z" fill="#A6B1CE"/>
<path d="M36.2027 18.3352L32.0629 19.3424C31.7344 19.4219 31.6613 19.6825 31.9002 19.9214L32.7836 20.7842C32.8578 20.8687 32.7698 20.9812 32.7 21.0288C32.1437 21.4085 31.2609 21.9657 30.0407 22.6023C23.3977 26.0682 17.9216 25.8556 17.8392 25.8519C17.3997 25.8295 17.0238 26.1682 17.0011 26.6085C16.9784 27.049 17.3171 27.4246 17.7576 27.4473C17.79 27.449 17.9217 27.4549 18.1431 27.4549C19.5629 27.4549 24.663 27.21 30.7797 24.0187C32.227 23.2636 33.2302 22.6124 33.8159 22.2001C33.8988 22.1418 34.0431 22.0413 34.1763 22.1769L35.1425 23.143C35.3815 23.382 35.6408 23.3084 35.7189 22.9796L36.6581 18.7885C36.7361 18.4596 36.5311 18.2557 36.2027 18.3352Z" fill="#A6B1CE"/>
</g>
<defs>
<clipPath id="clip0">
<rect width="20" height="20" fill="white" transform="translate(17 16.9999)"/>
</clipPath>
</defs>
</svg>
