<svg width="1202" height="989" viewBox="0 0 1202 989" fill="none" xmlns="http://www.w3.org/2000/svg">
<path opacity="0.1" d="M1140 40C1106.33 322.463 1072.67 604.926 1039 887.389C1040.74 887.59 1042.47 887.794 1044.21 888C1076.14 605.333 1108.07 322.667 1140 40Z" fill="url(#paint0_linear)"/>
<path opacity="0.1" d="M1131 38C1069.33 322.216 1007.67 606.433 946 890.65C947.571 890.764 949.142 890.881 950.713 891C1010.81 606.667 1070.9 322.333 1131 38Z" fill="url(#paint1_linear)"/>
<path opacity="0.1" d="M1128 52C1032.67 330.641 937.333 609.283 842 887.924C843.612 887.947 845.225 887.972 846.837 888C940.558 609.333 1034.28 330.667 1128 52Z" fill="url(#paint2_linear)"/>
<path opacity="0.1" d="M1125 49C996 331 867 613 738 895C739.631 894.932 741.263 894.867 742.894 894.804C870.262 612.869 997.631 330.935 1125 49Z" fill="url(#paint3_linear)"/>
<path opacity="0.1" d="M1127 40C964 325 801 610 638 895C639.643 894.84 641.286 894.683 642.929 894.528C804.286 609.685 965.643 324.843 1127 40Z" fill="url(#paint4_linear)"/>
<path opacity="0.1" d="M1131 20C934 310.333 737 600.667 540 891C541.647 890.747 543.294 890.497 544.941 890.249C740.294 600.166 935.647 310.083 1131 20Z" fill="url(#paint5_linear)"/>
<path opacity="0.1" d="M1129 14C902.667 306.333 676.333 598.667 450 891C451.613 890.659 453.225 890.32 454.838 889.984C679.559 597.989 904.28 305.995 1129 14Z" fill="url(#paint6_linear)"/>
<path opacity="0.1" d="M1149 -18C886 287.667 623 593.333 360 899C361.628 898.559 363.256 898.12 364.885 897.683C626.257 592.455 887.628 287.228 1149 -18Z" fill="url(#paint7_linear)"/>
<path opacity="0.1" d="M1149 -18C861.667 289.333 574.333 596.667 287 904C288.568 903.478 290.136 902.958 291.704 902.441C577.47 595.627 863.235 288.814 1149 -18Z" fill="url(#paint8_linear)"/>
<path opacity="0.1" d="M1149 -18C847 287.667 545 593.333 243 899C244.468 898.411 245.937 897.824 247.406 897.239C547.937 592.16 848.469 287.08 1149 -18Z" fill="url(#paint9_linear)"/>
<path opacity="0.1" d="M1149 -18C833.667 286.333 518.333 590.667 203 895C204.378 894.352 205.756 893.706 207.135 893.062C521.09 589.374 835.045 285.687 1149 -18Z" fill="url(#paint10_linear)"/>
<path opacity="0.1" d="M1149 -18C814 284 479 586 144 888C145.324 887.304 146.649 886.609 147.974 885.917C481.649 584.611 815.325 283.306 1149 -18Z" fill="url(#paint11_linear)"/>
<path opacity="0.1" d="M1149 -18C814 289.333 479 596.667 144 904C145.204 903.245 146.408 902.492 147.613 901.741C481.409 595.161 815.204 288.58 1149 -18Z" fill="url(#paint12_linear)"/>
<path opacity="0.1" d="M1149 -18C799.667 289.333 450.333 596.667 101 904C102.146 903.207 103.292 902.416 104.44 901.626C452.627 595.084 800.813 288.542 1149 -17.9999V-18Z" fill="url(#paint13_linear)"/>
<path opacity="0.1" d="M1149 -18C807.333 287.667 465.667 593.333 124 899C125.026 898.18 126.053 897.362 127.081 896.545C467.72 591.697 808.36 286.848 1149 -18Z" fill="url(#paint14_linear)"/>
<path opacity="0.1" d="M1149 -18C816.333 286.333 483.667 590.667 151 895C151.459 894.58 151.919 894.16 152.379 893.741C484.586 589.827 816.793 285.914 1149 -18Z" fill="url(#paint15_linear)"/>
<path opacity="0.1" d="M1149 -18C1165.14 285.981 1181.28 589.962 1197.42 893.944C1198.95 894.293 1200.47 894.646 1202 895C1184.33 590.667 1166.67 286.333 1149 -18Z" fill="url(#paint16_linear)"/>
<path opacity="0.1" d="M1149 -18C1133.33 286.068 1117.67 590.137 1102 894.205C1103.66 894.468 1105.32 894.733 1106.98 895C1120.99 590.667 1134.99 286.333 1149 -18Z" fill="url(#paint17_linear)"/>
<path opacity="0.1" d="M1140 42C1091 323.84 1042 605.68 993 887.52C994.671 887.678 996.342 887.838 998.012 888C1045.34 606 1092.67 324 1140 42Z" fill="url(#paint18_linear)"/>
<path opacity="0.1" d="M1131 46C1049.67 330.262 968.333 614.524 887 898.785C888.654 898.855 890.307 898.926 891.961 899C971.641 614.667 1051.32 330.333 1131 46Z" fill="url(#paint19_linear)"/>
<path opacity="0.1" d="M1127 43C1013.67 324.667 900.333 606.333 787 888C788.64 887.978 790.281 887.958 791.921 887.94C903.614 606.294 1015.31 324.647 1127 43Z" fill="url(#paint20_linear)"/>
<path opacity="0.1" d="M1129 46C982.667 330.333 836.333 614.667 690 899C691.642 898.886 693.284 898.774 694.926 898.665C839.617 614.443 984.309 330.222 1129 46Z" fill="url(#paint21_linear)"/>
<path opacity="0.1" d="M1125 37C942.333 324.333 759.667 611.667 577 899C578.67 898.794 580.34 898.59 582.011 898.389C763.007 611.259 944.004 324.13 1125 37Z" fill="url(#paint22_linear)"/>
<path opacity="0.1" d="M1125 18C913 313.333 701 608.667 489 904C490.631 903.698 492.263 903.399 493.895 903.103C704.264 608.068 914.632 313.034 1125 18Z" fill="url(#paint23_linear)"/>
<path opacity="0.1" d="M1146 -16C896.333 289 646.667 594 397 899C398.655 898.601 400.31 898.204 401.965 897.81C649.977 593.207 897.988 288.603 1146 -16Z" fill="url(#paint24_linear)"/>
<path opacity="0.1" d="M1149 -18C872.333 289.333 595.667 596.667 319 904C320.605 903.516 322.211 903.035 323.817 902.556C598.878 595.704 873.939 288.852 1149 -18Z" fill="url(#paint25_linear)"/>
<path opacity="0.1" d="M1149 -18C850.667 291 552.333 600 254 909C255.535 908.439 257.07 907.88 258.605 907.323C555.404 598.882 852.202 290.441 1149 -18Z" fill="url(#paint26_linear)"/>
<path opacity="0.1" d="M1149 -18C837.333 289.333 525.667 596.667 214 904C215.435 903.375 216.871 902.753 218.307 902.133C528.538 595.422 838.769 288.711 1149 -18Z" fill="url(#paint27_linear)"/>
<path opacity="0.1" d="M1149 -18C820.667 292.667 492.333 603.333 164 914C165.363 913.31 166.727 912.622 168.092 911.936C495.061 601.957 822.03 291.979 1149 -18Z" fill="url(#paint28_linear)"/>
<path opacity="0.1" d="M1149 -18C816.333 292.667 483.667 603.333 151 914C152.253 913.259 153.506 912.521 154.761 911.784C486.174 601.856 817.587 291.928 1149 -18Z" fill="url(#paint29_linear)"/>
<path opacity="0.1" d="M1149 -17.9999C814 289.333 479 596.667 144 904C145.15 903.225 146.3 902.452 147.451 901.681C481.301 595.121 815.15 288.56 1149 -18L1149 -17.9999Z" fill="url(#paint30_linear)"/>
<path opacity="0.1" d="M1149 -17.9999C825 275.333 501 568.667 177 862C178.017 861.227 179.034 860.456 180.052 859.687C503.035 567.125 826.017 274.562 1149 -18V-17.9999Z" fill="url(#paint31_linear)"/>
<path opacity="0.1" d="M1149 -18C825.667 271.667 502.333 561.333 179 851C179.93 850.21 180.861 849.423 181.792 848.637C504.195 559.758 826.597 270.879 1149 -18Z" fill="url(#paint32_linear)"/>
<defs>
<linearGradient id="paint0_linear" x1="1088.2" y1="463.542" x2="1093.41" y2="464.146" gradientUnits="userSpaceOnUse">
<stop stop-color="#7F8BFF"/>
<stop offset="1" stop-color="#433FFF"/>
</linearGradient>
<linearGradient id="paint1_linear" x1="990.447" y1="457.951" x2="1086.85" y2="467.853" gradientUnits="userSpaceOnUse">
<stop stop-color="#7F8BFF"/>
<stop offset="1" stop-color="#433FFF"/>
</linearGradient>
<linearGradient id="paint2_linear" x1="887.93" y1="457.57" x2="1082.5" y2="478.336" gradientUnits="userSpaceOnUse">
<stop stop-color="#7F8BFF"/>
<stop offset="1" stop-color="#433FFF"/>
</linearGradient>
<linearGradient id="paint3_linear" x1="785.162" y1="453.328" x2="1078.48" y2="484.649" gradientUnits="userSpaceOnUse">
<stop stop-color="#7F8BFF"/>
<stop offset="1" stop-color="#433FFF"/>
</linearGradient>
<linearGradient id="paint4_linear" x1="686.593" y1="442.653" x2="1079.21" y2="484.831" gradientUnits="userSpaceOnUse">
<stop stop-color="#7F8BFF"/>
<stop offset="1" stop-color="#433FFF"/>
</linearGradient>
<linearGradient id="paint5_linear" x1="590.213" y1="424.449" x2="1081.78" y2="477.354" gradientUnits="userSpaceOnUse">
<stop stop-color="#7F8BFF"/>
<stop offset="1" stop-color="#433FFF"/>
</linearGradient>
<linearGradient id="paint6_linear" x1="501.036" y1="415.914" x2="1079.15" y2="478.017" gradientUnits="userSpaceOnUse">
<stop stop-color="#7F8BFF"/>
<stop offset="1" stop-color="#433FFF"/>
</linearGradient>
<linearGradient id="paint7_linear" x1="413.843" y1="397.248" x2="1096.58" y2="470.513" gradientUnits="userSpaceOnUse">
<stop stop-color="#7F8BFF"/>
<stop offset="1" stop-color="#433FFF"/>
</linearGradient>
<linearGradient id="paint8_linear" x1="341.517" y1="395.12" x2="1096.08" y2="475.957" gradientUnits="userSpaceOnUse">
<stop stop-color="#7F8BFF"/>
<stop offset="1" stop-color="#433FFF"/>
</linearGradient>
<linearGradient id="paint9_linear" x1="296.996" y1="389.171" x2="1096.9" y2="473.889" gradientUnits="userSpaceOnUse">
<stop stop-color="#7F8BFF"/>
<stop offset="1" stop-color="#433FFF"/>
</linearGradient>
<linearGradient id="paint10_linear" x1="256.867" y1="384.367" x2="1097.2" y2="473.015" gradientUnits="userSpaceOnUse">
<stop stop-color="#7F8BFF"/>
<stop offset="1" stop-color="#433FFF"/>
</linearGradient>
<linearGradient id="paint11_linear" x1="199.311" y1="378.922" x2="1095.3" y2="476.271" gradientUnits="userSpaceOnUse">
<stop stop-color="#7F8BFF"/>
<stop offset="1" stop-color="#433FFF"/>
</linearGradient>
<linearGradient id="paint12_linear" x1="197.984" y1="384.155" x2="1097.54" y2="477.571" gradientUnits="userSpaceOnUse">
<stop stop-color="#7F8BFF"/>
<stop offset="1" stop-color="#433FFF"/>
</linearGradient>
<linearGradient id="paint13_linear" x1="156.403" y1="382.956" x2="1095.75" y2="482.838" gradientUnits="userSpaceOnUse">
<stop stop-color="#7F8BFF"/>
<stop offset="1" stop-color="#433FFF"/>
</linearGradient>
<linearGradient id="paint14_linear" x1="177.711" y1="380.113" x2="1097.93" y2="475.367" gradientUnits="userSpaceOnUse">
<stop stop-color="#7F8BFF"/>
<stop offset="1" stop-color="#433FFF"/>
</linearGradient>
<linearGradient id="paint15_linear" x1="203.158" y1="378.173" x2="1099.89" y2="468.67" gradientUnits="userSpaceOnUse">
<stop stop-color="#7F8BFF"/>
<stop offset="1" stop-color="#433FFF"/>
</linearGradient>
<linearGradient id="paint16_linear" x1="1104.94" y1="428.752" x2="1246.61" y2="442.725" gradientUnits="userSpaceOnUse">
<stop stop-color="#7F8BFF"/>
<stop offset="1" stop-color="#433FFF"/>
</linearGradient>
<linearGradient id="paint17_linear" x1="1101.76" y1="435.072" x2="1154.36" y2="440.557" gradientUnits="userSpaceOnUse">
<stop stop-color="#7F8BFF"/>
<stop offset="1" stop-color="#433FFF"/>
</linearGradient>
<linearGradient id="paint18_linear" x1="1040.26" y1="461.537" x2="1092.81" y2="467.367" gradientUnits="userSpaceOnUse">
<stop stop-color="#7F8BFF"/>
<stop offset="1" stop-color="#433FFF"/>
</linearGradient>
<linearGradient id="paint19_linear" x1="933.898" y1="462.882" x2="1084.41" y2="479.075" gradientUnits="userSpaceOnUse">
<stop stop-color="#7F8BFF"/>
<stop offset="1" stop-color="#433FFF"/>
</linearGradient>
<linearGradient id="paint20_linear" x1="834.03" y1="449.893" x2="1080.48" y2="476.349" gradientUnits="userSpaceOnUse">
<stop stop-color="#7F8BFF"/>
<stop offset="1" stop-color="#433FFF"/>
</linearGradient>
<linearGradient id="paint21_linear" x1="737.97" y1="450.657" x2="1081.77" y2="487.441" gradientUnits="userSpaceOnUse">
<stop stop-color="#7F8BFF"/>
<stop offset="1" stop-color="#433FFF"/>
</linearGradient>
<linearGradient id="paint22_linear" x1="627.106" y1="440.059" x2="1075.65" y2="489.03" gradientUnits="userSpaceOnUse">
<stop stop-color="#7F8BFF"/>
<stop offset="1" stop-color="#433FFF"/>
</linearGradient>
<linearGradient id="paint23_linear" x1="539.638" y1="426.662" x2="1075.62" y2="483.521" gradientUnits="userSpaceOnUse">
<stop stop-color="#7F8BFF"/>
<stop offset="1" stop-color="#433FFF"/>
</linearGradient>
<linearGradient id="paint24_linear" x1="450.489" y1="400.76" x2="1093.84" y2="469.829" gradientUnits="userSpaceOnUse">
<stop stop-color="#7F8BFF"/>
<stop offset="1" stop-color="#433FFF"/>
</linearGradient>
<linearGradient id="paint25_linear" x1="373.402" y1="397.234" x2="1096.1" y2="474.817" gradientUnits="userSpaceOnUse">
<stop stop-color="#7F8BFF"/>
<stop offset="1" stop-color="#433FFF"/>
</linearGradient>
<linearGradient id="paint26_linear" x1="308.844" y1="395.401" x2="1095.88" y2="479.444" gradientUnits="userSpaceOnUse">
<stop stop-color="#7F8BFF"/>
<stop offset="1" stop-color="#433FFF"/>
</linearGradient>
<linearGradient id="paint27_linear" x1="268.383" y1="389.779" x2="1096.61" y2="477.37" gradientUnits="userSpaceOnUse">
<stop stop-color="#7F8BFF"/>
<stop offset="1" stop-color="#433FFF"/>
</linearGradient>
<linearGradient id="paint28_linear" x1="219.068" y1="391.446" x2="1096.11" y2="483.871" gradientUnits="userSpaceOnUse">
<stop stop-color="#7F8BFF"/>
<stop offset="1" stop-color="#433FFF"/>
</linearGradient>
<linearGradient id="paint29_linear" x1="205.202" y1="389.339" x2="1097.4" y2="481.51" gradientUnits="userSpaceOnUse">
<stop stop-color="#7F8BFF"/>
<stop offset="1" stop-color="#433FFF"/>
</linearGradient>
<linearGradient id="paint30_linear" x1="197.504" y1="383.487" x2="1098.21" y2="476.071" gradientUnits="userSpaceOnUse">
<stop stop-color="#7F8BFF"/>
<stop offset="1" stop-color="#433FFF"/>
</linearGradient>
<linearGradient id="paint31_linear" x1="228.117" y1="364.311" x2="1100.53" y2="453.915" gradientUnits="userSpaceOnUse">
<stop stop-color="#7F8BFF"/>
<stop offset="1" stop-color="#433FFF"/>
</linearGradient>
<linearGradient id="paint32_linear" x1="229.726" y1="359.126" x2="1100.84" y2="448.961" gradientUnits="userSpaceOnUse">
<stop stop-color="#7F8BFF"/>
<stop offset="1" stop-color="#433FFF"/>
</linearGradient>
</defs>
</svg>
