<svg width="48" height="48" viewBox="0 0 48 48" fill="none" xmlns="http://www.w3.org/2000/svg">
<g id="Instagram">
<g id="Instagram_2">
<rect id="Rectangle" width="48" height="48" rx="24" fill="#13317D" fill-opacity="0.4"/>
<path id="Vector" d="M21.334 24.0003C21.334 22.5276 22.5276 21.3333 24.0003 21.3333C25.4731 21.3333 26.6673 22.5276 26.6673 24.0003C26.6673 25.4731 25.4731 26.6673 24.0003 26.6673C22.5276 26.6673 21.334 25.4731 21.334 24.0003ZM19.8923 24.0003C19.8923 26.2692 21.7314 28.1084 24.0003 28.1084C26.2692 28.1084 28.1084 26.2692 28.1084 24.0003C28.1084 21.7314 26.2692 19.8923 24.0003 19.8923C21.7314 19.8923 19.8923 21.7314 19.8923 24.0003ZM27.311 19.7294C27.3109 19.9192 27.3671 20.1049 27.4726 20.2628C27.578 20.4207 27.7279 20.5438 27.9033 20.6166C28.0787 20.6893 28.2717 20.7084 28.4579 20.6714C28.6442 20.6344 28.8153 20.5431 28.9496 20.4089C29.0839 20.2747 29.1754 20.1036 29.2125 19.9174C29.2497 19.7312 29.2307 19.5382 29.1581 19.3627C29.0855 19.1873 28.9625 19.0373 28.8047 18.9317C28.6469 18.8262 28.4613 18.7698 28.2714 18.7697H28.271C28.0165 18.7698 27.7724 18.871 27.5924 19.0509C27.4124 19.2308 27.3112 19.4749 27.311 19.7294ZM20.7682 30.5124C19.9882 30.4769 19.5642 30.3469 19.2825 30.2372C18.909 30.0918 18.6425 29.9186 18.3623 29.6388C18.0821 29.3589 17.9086 29.0927 17.7638 28.7192C17.654 28.4376 17.5241 28.0135 17.4886 27.2335C17.4499 26.3902 17.4421 26.1369 17.4421 24.0004C17.4421 21.8639 17.4505 21.6113 17.4886 20.7673C17.5242 19.9873 17.655 19.564 17.7638 19.2816C17.9093 18.9081 18.0825 18.6416 18.3623 18.3614C18.6421 18.0812 18.9083 17.9077 19.2825 17.763C19.5641 17.6531 19.9882 17.5232 20.7682 17.4877C21.6115 17.449 21.8648 17.4412 24.0003 17.4412C26.1358 17.4412 26.3894 17.4496 27.2334 17.4877C28.0134 17.5233 28.4367 17.6541 28.7191 17.763C29.0926 17.9077 29.3591 18.0816 29.6393 18.3614C29.9195 18.6412 30.0923 18.9081 30.2378 19.2816C30.3476 19.5632 30.4775 19.9873 30.513 20.7673C30.5518 21.6113 30.5595 21.8639 30.5595 24.0004C30.5595 26.1369 30.5518 26.3895 30.513 27.2335C30.4774 28.0135 30.3469 28.4374 30.2378 28.7192C30.0923 29.0927 29.9192 29.3592 29.6393 29.6388C29.3595 29.9183 29.0926 30.0918 28.7191 30.2372C28.4375 30.347 28.0134 30.4769 27.2334 30.5124C26.3901 30.5512 26.1368 30.5589 24.0003 30.5589C21.8639 30.5589 21.6112 30.5512 20.7682 30.5124ZM20.7019 16.0484C19.8503 16.0872 19.2683 16.2223 18.76 16.42C18.2337 16.6243 17.7881 16.8983 17.3428 17.3428C16.8976 17.7874 16.6243 18.2337 16.42 18.76C16.2223 19.2686 16.0872 19.8503 16.0484 20.7019C16.009 21.555 16 21.8277 16 24.0003C16 26.173 16.009 26.4457 16.0484 27.2987C16.0872 28.1504 16.2223 28.732 16.42 29.2406C16.6243 29.7666 16.8976 30.2134 17.3428 30.6578C17.788 31.1022 18.2337 31.3758 18.76 31.5806C19.2693 31.7784 19.8503 31.9134 20.7019 31.9522C21.5554 31.991 21.8277 32.0006 24.0003 32.0006C26.173 32.0006 26.4457 31.9916 27.2987 31.9522C28.1504 31.9134 28.732 31.7784 29.2406 31.5806C29.7666 31.3758 30.2125 31.1024 30.6578 30.6578C31.1031 30.2132 31.3758 29.7666 31.5806 29.2406C31.7784 28.732 31.914 28.1504 31.9522 27.2987C31.991 26.445 32 26.173 32 24.0003C32 21.8277 31.991 21.555 31.9522 20.7019C31.9134 19.8502 31.7784 19.2683 31.5806 18.76C31.3758 18.234 31.1024 17.7881 30.6578 17.3428C30.2132 16.8976 29.7666 16.6243 29.2412 16.42C28.732 16.2223 28.1504 16.0866 27.2993 16.0484C26.4463 16.0097 26.1736 16 24.001 16C21.8283 16 21.5554 16.009 20.7019 16.0484Z" fill="#A6B1CE"/>
</g>
</g>
</svg>
