<svg width="230" height="40" viewBox="0 0 230 40" fill="none" xmlns="http://www.w3.org/2000/svg">
<path d="M90.2917 11.2735L88.5903 13.4308L86.8889 11.2735L84.1543 7.8064H80.6519L84.833 13.1275V13.1274L87.2067 16.1468L87.2152 20.9208H89.9654L89.9569 16.1488L92.3322 13.1274V13.1275L96.5133 7.8064H93.0263L90.2917 11.2735Z" fill="#FBFBFB"/>
<path d="M102.536 7.80649C102.534 7.80649 102.533 7.80709 102.533 7.8081L96.6741 20.9208H99.4339L100.635 18.0227H107.206L108.407 20.9208H111.244L105.365 7.80649H102.536V7.80649ZM101.472 16.0574L103.93 10.135L106.389 16.0574H101.472Z" fill="#FBFBFB"/>
<path d="M127.356 7.80649H124.431L118.132 14.4352V7.80649H115.426V20.9208H118.132V17.6234L120.171 15.5022L124.595 20.9208H127.733L121.941 13.6188L127.356 7.80649Z" fill="#FBFBFB"/>
<path d="M141.578 8.45736C140.489 7.87163 139.245 7.57434 137.879 7.57434C136.513 7.57434 135.265 7.87163 134.17 8.45817C133.079 9.0431 132.213 9.85943 131.596 10.8855C130.979 11.9099 130.667 13.0798 130.667 14.3637C130.667 15.6469 130.979 16.8167 131.596 17.842C132.213 18.868 133.079 19.6843 134.17 20.2685V20.2693C135.265 20.8558 136.513 21.1531 137.879 21.1531C139.245 21.1531 140.49 20.8558 141.578 20.2693C142.663 19.6843 143.529 18.868 144.153 17.8412C144.776 16.8159 145.091 15.6461 145.091 14.3637C145.091 13.0806 144.776 11.9107 144.153 10.8863C143.53 9.86023 142.663 9.0431 141.578 8.45736ZM141.749 16.7051C141.364 17.392 140.826 17.9352 140.151 18.3192H140.151C139.476 18.7033 138.712 18.8977 137.879 18.8977C137.046 18.8977 136.282 18.7033 135.607 18.3192C134.932 17.9352 134.394 17.392 134.009 16.7051C133.625 16.0205 133.431 15.2331 133.431 14.3637C133.431 13.4952 133.625 12.7069 134.009 12.0216C134.394 11.3346 134.932 10.7915 135.608 10.4074C136.281 10.0241 137.046 9.8297 137.879 9.8297C138.712 9.8297 139.477 10.0241 140.151 10.4074C140.826 10.7915 141.364 11.3346 141.749 12.0216C142.133 12.7069 142.327 13.4952 142.327 14.3637C142.327 15.2331 142.133 16.0205 141.749 16.7051Z" fill="#FBFBFB"/>
<path d="M170.144 7.80649H167.418V20.9208H176.943V18.782H170.144V7.80649Z" fill="#FBFBFB"/>
<path d="M184.892 18.8205V15.2788H191.188V13.2549H184.892V9.90678H192.02V7.80649H182.186V20.9208H192.02V18.8205H184.892Z" fill="#FBFBFB"/>
<path d="M155.215 17.7833L155.203 17.7596V17.7598L155.191 17.7833L150.105 7.80649H147.166L153.831 20.9208H155.203H156.576L163.241 7.80649H160.301L155.215 17.7833Z" fill="#FBFBFB"/>
<path d="M203.491 17.7833L203.479 17.7596V17.7598L203.467 17.7833L198.381 7.80649H195.441L202.106 20.9208H203.479H204.851L211.516 7.80649H208.577L203.491 17.7833Z" fill="#FBFBFB"/>
<path d="M221.975 17.7832L221.963 17.7595V17.7597L221.951 17.7832L216.865 7.8064H213.925L220.59 20.9207H221.963H223.335L230 7.8064H227.061L221.975 17.7832Z" fill="#FBFBFB"/>
<path d="M103.078 26.6733H105.481C106.084 26.6733 106.618 26.7924 107.085 27.0307C107.552 27.2692 107.915 27.6035 108.173 28.0342C108.431 28.4647 108.56 28.959 108.56 29.5169C108.56 30.0749 108.431 30.5691 108.173 30.9997C107.915 31.4304 107.552 31.7649 107.085 32.0032C106.618 32.2415 106.084 32.3606 105.481 32.3606H103.078V26.6733ZM105.432 31.6537C105.893 31.6537 106.3 31.5643 106.65 31.3857C107 31.2069 107.27 30.9565 107.46 30.6341C107.65 30.3118 107.745 29.9394 107.745 29.5169C107.745 29.0945 107.65 28.7221 107.46 28.3998C107.27 28.0776 107 27.827 106.65 27.6482C106.3 27.4694 105.893 27.3802 105.432 27.3802H103.893V31.6537H105.432Z" fill="#FBFBFB"/>
<path d="M115.197 31.6537V32.3606H111.06V26.6733H115.084V27.3802H111.875V29.127H114.733V29.8175H111.875V31.6537H115.197Z" fill="#FBFBFB"/>
<path d="M118.19 32.2265C117.791 32.094 117.478 31.9219 117.25 31.7107L117.551 31.0768C117.768 31.272 118.047 31.4304 118.386 31.5523C118.725 31.6741 119.074 31.735 119.432 31.735C119.905 31.735 120.258 31.6551 120.491 31.4953C120.725 31.3355 120.841 31.1229 120.841 30.8576C120.841 30.6625 120.778 30.5041 120.65 30.3822C120.522 30.2603 120.365 30.167 120.178 30.1019C119.99 30.037 119.726 29.9639 119.384 29.8825C118.955 29.7797 118.609 29.6768 118.345 29.5738C118.082 29.471 117.857 29.3126 117.669 29.0986C117.482 28.8846 117.388 28.5962 117.388 28.2333C117.388 27.9299 117.468 27.6564 117.629 27.4127C117.789 27.1689 118.032 26.974 118.357 26.8276C118.683 26.6815 119.088 26.6082 119.571 26.6082C119.907 26.6082 120.239 26.6517 120.565 26.7382C120.891 26.8249 121.17 26.9495 121.403 27.112L121.135 27.7619C120.896 27.6103 120.641 27.4953 120.369 27.4167C120.098 27.3382 119.831 27.299 119.571 27.299C119.109 27.299 118.763 27.3829 118.533 27.5507C118.302 27.7188 118.187 27.9353 118.187 28.2008C118.187 28.3958 118.252 28.5542 118.382 28.676C118.512 28.7979 118.674 28.8928 118.867 28.9604C119.059 29.0282 119.321 29.1 119.653 29.1758C120.081 29.2786 120.426 29.3816 120.687 29.4844C120.947 29.5874 121.172 29.7445 121.359 29.9557C121.546 30.167 121.64 30.4514 121.64 30.8088C121.64 31.1068 121.558 31.3789 121.395 31.6253C121.232 31.8718 120.985 32.0669 120.654 32.2104C120.323 32.3538 119.916 32.4255 119.432 32.4255C119.003 32.4255 118.59 32.3593 118.19 32.2265Z" fill="#FBFBFB"/>
<path d="M124.083 26.6733H124.898V32.3606H124.083V26.6733Z" fill="#FBFBFB"/>
<path d="M131.812 29.4844H132.594V31.7025C132.312 31.9356 131.983 32.1142 131.609 32.2388C131.234 32.3634 130.843 32.4255 130.436 32.4255C129.86 32.4255 129.341 32.2996 128.88 32.0479C128.419 31.796 128.056 31.4494 127.793 31.0078C127.529 30.5664 127.398 30.0694 127.398 29.5169C127.398 28.9645 127.529 28.4661 127.793 28.022C128.056 27.5779 128.42 27.2311 128.884 26.982C129.348 26.733 129.871 26.6082 130.452 26.6082C130.908 26.6082 131.322 26.6828 131.694 26.8317C132.066 26.9808 132.383 27.1987 132.643 27.4857L132.138 27.9895C131.682 27.5507 131.131 27.3314 130.485 27.3314C130.05 27.3314 129.661 27.4249 129.316 27.6117C128.971 27.7985 128.701 28.0585 128.506 28.3917C128.31 28.7248 128.212 29.1 128.212 29.5169C128.212 29.9287 128.31 30.3009 128.506 30.6341C128.701 30.9672 128.971 31.2286 129.316 31.4182C129.661 31.6079 130.048 31.7025 130.477 31.7025C130.987 31.7025 131.432 31.5806 131.812 31.3369V29.4844Z" fill="#FBFBFB"/>
<path d="M140.307 26.6733V32.3606H139.639L136.219 28.1196V32.3606H135.404V26.6733H136.072L139.493 30.9143V26.6733H140.307Z" fill="#FBFBFB"/>
<path d="M147.303 31.7756C146.88 31.3423 146.668 30.7194 146.668 29.9069V26.6733H147.482V29.8745C147.482 31.0932 148.017 31.7025 149.087 31.7025C149.608 31.7025 150.007 31.5522 150.284 31.2516C150.561 30.9509 150.699 30.492 150.699 29.8745V26.6733H151.489V29.9069C151.489 30.7248 151.278 31.3491 150.854 31.7797C150.43 32.2104 149.838 32.4255 149.079 32.4255C148.318 32.4255 147.726 32.209 147.303 31.7756Z" fill="#FBFBFB"/>
<path d="M159.316 26.6733V32.3606H158.648L155.228 28.1196V32.3606H154.413V26.6733H155.081L158.502 30.9143V26.6733H159.316Z" fill="#FBFBFB"/>
<path d="M162.281 26.6733H163.095V32.3606H162.281V26.6733Z" fill="#FBFBFB"/>
<path d="M170.955 26.6733L168.455 32.3606H167.648L165.14 26.6733H166.019L168.072 31.3451L170.14 26.6733H170.955Z" fill="#FBFBFB"/>
<path d="M177.071 31.6537V32.3606H172.934V26.6733H176.957V27.3802H173.748V29.127H176.607V29.8175H173.748V31.6537H177.071Z" fill="#FBFBFB"/>
<path d="M183.456 32.3606L182.227 30.6139C182.075 30.6247 181.955 30.63 181.868 30.63H180.459V32.3606H179.645V26.6733H181.868C182.606 26.6733 183.187 26.8494 183.611 27.2014C184.035 27.5536 184.247 28.0383 184.247 28.6556C184.247 29.0945 184.138 29.4683 183.921 29.7769C183.703 30.0858 183.394 30.3104 182.992 30.4514L184.344 32.3606H183.456ZM183.025 29.6063C183.296 29.3843 183.432 29.0675 183.432 28.6556C183.432 28.2441 183.296 27.9285 183.025 27.7092C182.753 27.4898 182.359 27.3802 181.844 27.3802H180.459V29.9394H181.844C182.359 29.9394 182.753 29.8284 183.025 29.6063Z" fill="#FBFBFB"/>
<path d="M187.24 32.2265C186.841 32.094 186.527 31.9219 186.299 31.7107L186.6 31.0768C186.817 31.272 187.096 31.4304 187.435 31.5523C187.774 31.6741 188.124 31.735 188.482 31.735C188.954 31.735 189.307 31.6551 189.54 31.4953C189.774 31.3355 189.891 31.1229 189.891 30.8576C189.891 30.6625 189.827 30.5041 189.699 30.3822C189.572 30.2603 189.414 30.167 189.227 30.1019C189.04 30.037 188.775 29.9639 188.433 29.8825C188.004 29.7797 187.658 29.6768 187.394 29.5738C187.131 29.471 186.906 29.3126 186.718 29.0986C186.531 28.8846 186.437 28.5962 186.437 28.2333C186.437 27.9299 186.518 27.6564 186.678 27.4127C186.838 27.1689 187.081 26.974 187.407 26.8276C187.732 26.6815 188.137 26.6082 188.62 26.6082C188.957 26.6082 189.288 26.6517 189.614 26.7382C189.94 26.8249 190.219 26.9495 190.453 27.112L190.184 27.7619C189.945 27.6103 189.69 27.4953 189.418 27.4167C189.147 27.3382 188.881 27.299 188.62 27.299C188.159 27.299 187.813 27.3829 187.582 27.5507C187.351 27.7188 187.236 27.9353 187.236 28.2008C187.236 28.3958 187.301 28.5542 187.431 28.676C187.562 28.7979 187.723 28.8928 187.916 28.9604C188.108 29.0282 188.371 29.1 188.702 29.1758C189.13 29.2786 189.475 29.3816 189.736 29.4844C189.997 29.5874 190.221 29.7445 190.408 29.9557C190.595 30.167 190.689 30.4514 190.689 30.8088C190.689 31.1068 190.607 31.3789 190.444 31.6253C190.282 31.8718 190.035 32.0669 189.703 32.2104C189.372 32.3538 188.965 32.4255 188.482 32.4255C188.053 32.4255 187.639 32.3593 187.24 32.2265Z" fill="#FBFBFB"/>
<path d="M193.132 26.6733H193.947V32.3606H193.132V26.6733Z" fill="#FBFBFB"/>
<path d="M198.043 27.3802H196.089V26.6733H200.804V27.3802H198.849V32.3606H198.043V27.3802Z" fill="#FBFBFB"/>
<path d="M205.064 30.3944V32.3606H204.258V30.3781L201.993 26.6733H202.865L204.69 29.6714L206.522 26.6733H207.328L205.064 30.3944Z" fill="#FBFBFB"/>
<path d="M49.8341 0H49.834H42.1885C40.5585 0 39.0227 0.771001 38.0394 2.08318L35.0224 6.10874L31.9291 2.04957C30.9444 0.757286 29.4206 0 27.8053 0H20.2107H20.2106L30.0852 12.6661L35.0224 18.9993L39.9596 12.6661L49.8341 0Z" fill="url(#paint0_linear)"/>
<path d="M69.9999 0H61.8405C61.2425 0 60.6611 0.138668 60.137 0.396112C59.6129 0.653555 59.146 1.02966 58.7771 1.50474L45.8807 18.1087V18.1087L39.7671 25.9762C39.2639 26.6238 38.9904 27.423 38.9904 28.2459V40L38.9905 40L70 0H69.9999Z" fill="url(#paint1_linear)"/>
<path d="M30.2329 25.9762L24.1192 18.1087V18.1087L11.2229 1.50474C10.8539 1.02966 10.3871 0.653555 9.86299 0.396112C9.33887 0.138668 8.75747 0 8.1595 0H0.000109794H0L31.0095 40L31.0096 40V28.2459C31.0096 27.423 30.7361 26.6238 30.2329 25.9762Z" fill="url(#paint2_linear)"/>
<defs>
<linearGradient id="paint0_linear" x1="20.2106" y1="9.49963" x2="49.8341" y2="9.49963" gradientUnits="userSpaceOnUse">
<stop stop-color="#42B2FE"/>
<stop offset="1" stop-color="#A646F9"/>
</linearGradient>
<linearGradient id="paint1_linear" x1="38.9904" y1="20" x2="70" y2="20" gradientUnits="userSpaceOnUse">
<stop stop-color="#4E96FF"/>
<stop offset="1" stop-color="#6044FB"/>
</linearGradient>
<linearGradient id="paint2_linear" x1="0" y1="20" x2="31.0096" y2="20" gradientUnits="userSpaceOnUse">
<stop stop-color="#B5A2F6"/>
<stop offset="1" stop-color="#433FFF"/>
</linearGradient>
</defs>
</svg>
