<svg width="54" height="54" viewBox="0 0 54 54" fill="none" xmlns="http://www.w3.org/2000/svg">
<circle cx="27" cy="27" r="27" fill="#13317D" fill-opacity="0.4"/>
<g clip-path="url(#clip0)">
<path d="M21.0772 36.9999H32.9221C33.7447 36.9999 34.4116 36.333 34.4116 35.5104V28.0625H19.5876V35.5104C19.5876 36.333 20.2546 36.9999 21.0772 36.9999Z" fill="#A6B1CE"/>
<path d="M18.6619 25.3007V27.3H35.338V25.3007C35.338 24.4782 34.6711 23.8112 33.8485 23.8112H29.4884C31.5591 23.8112 34.5367 21.8015 33.8843 19.6704C33.3395 17.8901 31.7044 16.9897 30.0335 17.0001C27.6745 17.0135 27.0631 21.959 27.0631 21.959H26.9998C26.9998 21.959 26.3887 17.0135 24.0293 17.0001C22.3581 16.9897 20.7233 17.8901 20.1786 19.6704C19.5258 21.8015 22.5037 23.8112 24.5752 23.8112H20.1514C19.3288 23.8112 18.6619 24.4782 18.6619 25.3007ZM31.7684 18.7976C31.7684 18.7976 31.6954 21.2314 28.4248 23.049C28.4252 23.049 29.043 19.9244 31.7684 18.7976ZM22.322 18.7976C25.0466 19.924 25.6644 23.049 25.6644 23.049C22.3946 21.2314 22.322 18.7976 22.322 18.7976Z" fill="#A6B1CE"/>
</g>
<defs>
<clipPath id="clip0">
<rect width="20" height="20" fill="white" transform="translate(17 17)"/>
</clipPath>
</defs>
</svg>
