<svg width="48" height="48" viewBox="0 0 48 48" fill="none" xmlns="http://www.w3.org/2000/svg">
<rect width="48" height="48" rx="24" fill="#13317D" fill-opacity="0.4"/>
<path d="M17.0999 23.027C21.3949 21.0513 24.2589 19.7487 25.6919 19.1194C29.7834 17.3226 30.6335 17.0105 31.1877 17.0001C31.3095 16.9979 31.582 17.0298 31.7586 17.1811C31.9076 17.3088 31.9486 17.4813 31.9683 17.6023C31.9879 17.7234 32.0123 17.9992 31.9929 18.2147C31.7712 20.6744 30.8118 26.6434 30.3237 29.3983C30.1172 30.564 29.7105 30.9548 29.3168 30.9931C28.4613 31.0762 27.8116 30.3961 26.9829 29.8226C25.6862 28.9251 24.9537 28.3664 23.695 27.4907C22.2404 26.4786 23.1834 25.9224 24.0124 25.0133C24.2293 24.7754 27.999 21.1552 28.0719 20.8268C28.0811 20.7857 28.0895 20.6326 28.0034 20.5517C27.9172 20.4709 27.7901 20.4985 27.6983 20.5205C27.5683 20.5517 25.4968 21.9973 21.4839 24.8573C20.8959 25.2836 20.3633 25.4913 19.8862 25.4805C19.3601 25.4685 18.3482 25.1664 17.596 24.9083C16.6733 24.5916 15.94 24.4242 16.0039 23.8864C16.0371 23.6063 16.4025 23.3198 17.0999 23.027Z" fill="#A6B1CE"/>
</svg>
