<svg width="49" height="50" viewBox="0 0 49 50" fill="none" xmlns="http://www.w3.org/2000/svg">
<g filter="url(#filter0_d)">
<path d="M39.3201 33.2745C34.1942 41.4044 23.4479 43.8416 15.3176 38.7181C7.18731 33.5945 4.75176 22.8505 9.87767 14.7205C15.0036 6.59061 25.7498 4.15344 33.8802 9.27697C42.0105 14.4005 44.446 25.1445 39.3201 33.2745Z" fill="#4285F4"/>
<path d="M39.3201 33.2745C34.1942 41.4044 23.4479 43.8416 15.3176 38.7181C7.18731 33.5945 4.75176 22.8505 9.87767 14.7205C15.0036 6.59061 25.7498 4.15344 33.8802 9.27697C42.0105 14.4005 44.446 25.1445 39.3201 33.2745Z" fill="url(#paint0_linear)"/>
<path d="M39.3201 33.2745C34.1942 41.4044 23.4479 43.8416 15.3176 38.7181C7.18731 33.5945 4.75176 22.8505 9.87767 14.7205C15.0036 6.59061 25.7498 4.15344 33.8802 9.27697C42.0105 14.4005 44.446 25.1445 39.3201 33.2745Z" fill="url(#paint1_linear)"/>
<g clip-path="url(#clip0)">
<path d="M20.352 24.0328C20.352 23.8248 20.4428 23.6169 20.6238 23.4584L26.3239 18.4697C26.6865 18.1524 27.2744 18.1524 27.6369 18.4697C27.9993 18.7869 27.9993 19.3013 27.6369 19.6187L22.5931 24.0328L27.6367 28.4469C27.9991 28.7642 27.9991 29.2786 27.6367 29.5958C27.2742 29.9133 26.6863 29.9133 26.3237 29.5958L20.6236 24.6071C20.4425 24.4485 20.352 24.2406 20.352 24.0328Z" fill="white"/>
</g>
</g>
<defs>
<filter id="filter0_d" x="3.19385" y="6.59546" width="42.8101" height="42.8043" filterUnits="userSpaceOnUse" color-interpolation-filters="sRGB">
<feFlood flood-opacity="0" result="BackgroundImageFix"/>
<feColorMatrix in="SourceAlpha" type="matrix" values="0 0 0 0 0 0 0 0 0 0 0 0 0 0 0 0 0 0 127 0" result="hardAlpha"/>
<feOffset dy="4"/>
<feGaussianBlur stdDeviation="2"/>
<feComposite in2="hardAlpha" operator="out"/>
<feColorMatrix type="matrix" values="0 0 0 0 0 0 0 0 0 0 0 0 0 0 0 0 0 0 0.25 0"/>
<feBlend mode="normal" in2="BackgroundImageFix" result="effect1_dropShadow"/>
<feBlend mode="normal" in="SourceGraphic" in2="effect1_dropShadow" result="shape"/>
</filter>
<linearGradient id="paint0_linear" x1="9.87767" y1="14.7205" x2="39.3158" y2="33.2812" gradientUnits="userSpaceOnUse">
<stop stop-color="#4E96FF"/>
<stop offset="1" stop-color="#6044FB"/>
</linearGradient>
<linearGradient id="paint1_linear" x1="14.5" y1="12" x2="36.4925" y2="35.507" gradientUnits="userSpaceOnUse">
<stop stop-color="#B5A2F6"/>
<stop offset="1" stop-color="#433FFF"/>
</linearGradient>
<clipPath id="clip0">
<rect width="11.6022" height="13.2566" fill="white" transform="translate(30.7585 18.2319) rotate(90)"/>
</clipPath>
</defs>
</svg>
