<svg width="49" height="48" viewBox="0 0 49 48" fill="none" xmlns="http://www.w3.org/2000/svg">
<ellipse rx="17.4005" ry="17.4022" transform="matrix(-0.846024 0.533145 0.533339 0.845902 24.0024 23.9975)" fill="#4285F4"/>
<ellipse rx="17.4005" ry="17.4022" transform="matrix(-0.846024 0.533145 0.533339 0.845902 24.0024 23.9975)" fill="url(#paint0_linear)"/>
<ellipse rx="17.4005" ry="17.4022" transform="matrix(-0.846024 0.533145 0.533339 0.845902 24.0024 23.9975)" fill="url(#paint1_linear)"/>
<g clip-path="url(#clip0)">
<path d="M28.2493 24.0328C28.2493 23.8248 28.1586 23.6169 27.9775 23.4584L22.2774 18.4697C21.9148 18.1524 21.3269 18.1524 20.9645 18.4697C20.602 18.7869 20.602 19.3013 20.9645 19.6187L26.0082 24.0328L20.9646 28.4469C20.6022 28.7642 20.6022 29.2786 20.9646 29.5958C21.3271 29.9133 21.915 29.9133 22.2776 29.5958L27.9777 24.6071C28.1588 24.4485 28.2493 24.2406 28.2493 24.0328Z" fill="white"/>
</g>
<defs>
<filter id="filter0_d" x="3.19385" y="6.59546" width="42.8101" height="42.8043" filterUnits="userSpaceOnUse" color-interpolation-filters="sRGB">
<feFlood flood-opacity="0" result="BackgroundImageFix"/>
<feColorMatrix in="SourceAlpha" type="matrix" values="0 0 0 0 0 0 0 0 0 0 0 0 0 0 0 0 0 0 127 0" result="hardAlpha"/>
<feOffset dy="4"/>
<feGaussianBlur stdDeviation="2"/>
<feComposite in2="hardAlpha" operator="out"/>
<feColorMatrix type="matrix" values="0 0 0 0 0 0 0 0 0 0 0 0 0 0 0 0 0 0 0.25 0"/>
<feBlend mode="normal" in2="BackgroundImageFix" result="effect1_dropShadow"/>
<feBlend mode="normal" in="SourceGraphic" in2="effect1_dropShadow" result="shape"/>
</filter>
<linearGradient id="paint0_linear" x1="0" y1="17.4022" x2="34.8009" y2="17.4022" gradientUnits="userSpaceOnUse">
<stop stop-color="#4E96FF"/>
<stop offset="1" stop-color="#6044FB"/>
</linearGradient>
<linearGradient id="paint1_linear" x1="-2.53064" y1="15.781" x2="35.4437" y2="22.587" gradientUnits="userSpaceOnUse">
<stop stop-color="#B5A2F6"/>
<stop offset="1" stop-color="#433FFF"/>
</linearGradient>
<clipPath id="clip0">
<rect width="11.6022" height="13.2566" fill="white" transform="matrix(4.37013e-08 1 1 -4.37214e-08 17.8428 18.2319)"/>
</clipPath>
</defs>
</svg>
