<svg width="48" height="48" viewBox="0 0 48 48" fill="none" xmlns="http://www.w3.org/2000/svg">
<g id="Vkontakte (VK)">
<g id="Vkontakte (VK)_2">
<rect id="Rectangle" width="48" height="48" rx="24" fill="#13317D" fill-opacity="0.4"/>
<path id="Vector" fill-rule="evenodd" clip-rule="evenodd" d="M31.6329 19.9249C31.7442 19.5346 31.6329 19.2478 31.1035 19.2478H29.3531C28.908 19.2478 28.703 19.4956 28.5917 19.7689C28.5917 19.7689 27.7015 22.0521 26.4404 23.5353C26.0325 23.9646 25.847 24.1011 25.6245 24.1011C25.5132 24.1011 25.3522 23.9646 25.3522 23.5744V19.9249C25.3522 19.4565 25.223 19.2478 24.8521 19.2478H22.1014C21.8234 19.2478 21.6561 19.4652 21.6561 19.6712C21.6561 20.1153 22.2865 20.2177 22.3515 21.4666V24.1794C22.3515 24.7741 22.2495 24.882 22.0269 24.882C21.4335 24.882 19.9902 22.5883 19.134 19.964C18.9662 19.4539 18.7979 19.2478 18.3505 19.2478H16.6001C16.1 19.2478 16 19.4956 16 19.7689C16 20.2567 16.5935 22.6768 18.7631 25.8773C20.2097 28.0628 22.2475 29.2478 24.1019 29.2478C25.2147 29.2478 25.3522 28.9846 25.3522 28.5314V26.8794C25.3522 26.3531 25.4576 26.2481 25.8098 26.2481C26.0696 26.2481 26.5146 26.3846 27.5532 27.4385C28.74 28.6873 28.9355 29.2478 29.6032 29.2478H31.3536C31.8537 29.2478 32.1038 28.9846 31.9595 28.4653C31.8017 27.9477 31.2351 27.1969 30.4831 26.3066C30.0752 25.7991 29.4631 25.2527 29.2779 24.9795C29.0182 24.6282 29.0923 24.4721 29.2779 24.16C29.2779 24.16 31.4103 20.9985 31.6329 19.925V19.9249Z" fill="#A6B1CE"/>
</g>
</g>
</svg>
