<svg width="48" height="48" viewBox="0 0 48 48" fill="none" xmlns="http://www.w3.org/2000/svg">
<g id="YouTube">
<g id="YouTube_2">
<rect id="Rectangle" width="48" height="48" rx="24" fill="#13317D" fill-opacity="0.4"/>
<g id="Group">
<path id="Exclude" fill-rule="evenodd" clip-rule="evenodd" d="M31.6704 24.6006C31.4859 23.9189 30.9456 23.3815 30.2602 23.1979C29.0082 22.8571 24 22.8571 24 22.8571C24 22.8571 18.9918 22.8571 17.7397 23.1848C17.0675 23.3684 16.514 23.9189 16.3295 24.6006C16 25.846 16 28.4286 16 28.4286C16 28.4286 16 31.0242 16.3295 32.2565C16.514 32.9382 17.0544 33.4756 17.7397 33.6592C19.0049 34 24 34 24 34C24 34 29.0082 34 30.2602 33.6723C30.9456 33.4888 31.4859 32.9513 31.6704 32.2696C31.9999 31.0242 31.9999 28.4417 31.9999 28.4417C31.9999 28.4417 32.0131 25.846 31.6704 24.6006ZM28.4034 29.6897V29.9214C28.4034 30.2131 28.412 30.4361 28.4293 30.582C28.4465 30.7279 28.481 30.8394 28.5414 30.8994C28.5932 30.9681 28.6794 31.0024 28.8002 31.0024C28.9554 31.0024 29.0589 30.9423 29.1193 30.8222C29.1797 30.7021 29.2056 30.5048 29.2142 30.2217L30.1026 30.2731C30.1113 30.316 30.1113 30.3675 30.1113 30.4361C30.1113 30.8565 29.9991 31.174 29.7662 31.3799C29.5333 31.5858 29.2056 31.6888 28.7829 31.6888C28.274 31.6888 27.9204 31.5258 27.7134 31.2083C27.5063 30.8909 27.4028 30.4018 27.4028 29.7326V28.9347C27.4028 28.2483 27.5063 27.7507 27.722 27.4333C27.9376 27.1158 28.2999 26.9614 28.8088 26.9614C29.1624 26.9614 29.4385 27.03 29.6282 27.1587C29.818 27.2874 29.9474 27.4933 30.025 27.7593C30.1026 28.0339 30.1371 28.4114 30.1371 28.8918V29.6726H28.4034V29.6897ZM28.5328 27.7679C28.481 27.8365 28.4465 27.9395 28.4293 28.0853C28.412 28.2312 28.4034 28.4543 28.4034 28.7545V29.0806H29.1624V28.7545C29.1624 28.4628 29.1538 28.2398 29.1366 28.0853C29.1193 27.9309 29.0762 27.8279 29.0244 27.7679C28.9727 27.7078 28.8864 27.6735 28.7829 27.6735C28.6622 27.6649 28.5845 27.6993 28.5328 27.7679ZM23.4178 31.6373V27.0644H22.3827V30.6935C22.3482 30.7793 22.2879 30.848 22.2016 30.8995C22.1153 30.9595 22.0291 30.9853 21.9428 30.9853C21.8393 30.9853 21.7617 30.9424 21.7186 30.8566C21.6754 30.7708 21.6496 30.6249 21.6496 30.419V27.0644H20.6145V30.4791C20.6145 30.908 20.6835 31.2169 20.8301 31.4142C20.9768 31.6116 21.201 31.7145 21.5029 31.7145C21.9428 31.7145 22.2792 31.5 22.4949 31.0796H22.5207L22.607 31.6373H23.4178ZM20.925 26.2064H19.8985V31.6287H18.8894V26.2064H17.8629V25.3742H20.925V26.2064ZM26.5403 27.1673C26.6783 27.296 26.7818 27.5019 26.8422 27.7936C26.9026 28.0768 26.9284 28.48 26.9371 29.0034V29.7241C26.9371 30.4018 26.8508 30.908 26.6869 31.2255C26.523 31.5429 26.2729 31.7059 25.9193 31.7059C25.7209 31.7059 25.5484 31.6545 25.3845 31.5687C25.2206 31.4743 25.0998 31.3542 25.0222 31.1997H24.9963L24.8928 31.6287H24.0389V25.1425H25.0395V27.5534H25.0481C25.1343 27.3818 25.2637 27.236 25.4276 27.133C25.5915 27.0215 25.7726 26.97 25.9624 26.97C26.2039 26.97 26.4023 27.0386 26.5403 27.1673ZM25.8503 30.4362C25.8761 30.2474 25.8934 29.99 25.8934 29.6554H25.902V29.0548C25.902 28.7031 25.8934 28.4285 25.8675 28.2312C25.8416 28.0424 25.8071 27.9052 25.7467 27.8194C25.695 27.7422 25.6087 27.6993 25.5052 27.6993C25.4103 27.6993 25.3155 27.7422 25.2292 27.8194C25.143 27.9052 25.0826 28.0081 25.0481 28.1282V30.7193C25.0912 30.7965 25.1516 30.8566 25.2206 30.8995C25.2896 30.9424 25.3672 30.9595 25.4535 30.9595C25.557 30.9595 25.6432 30.9166 25.7122 30.8394C25.7726 30.7622 25.8244 30.6249 25.8503 30.4362Z" fill="#A6B1CE"/>
<g id="You">
<path id="Vector" d="M23.0296 21.1259C22.8226 20.9886 22.676 20.7741 22.5897 20.4738C22.5035 20.1821 22.4603 19.7874 22.4603 19.307V18.6463C22.4603 18.1573 22.5121 17.7626 22.607 17.4624C22.7105 17.1621 22.8657 16.9476 23.0727 16.8103C23.2884 16.673 23.5644 16.6044 23.9094 16.6044C24.2458 16.6044 24.5218 16.673 24.7288 16.8103C24.9359 16.9476 25.0825 17.1707 25.1774 17.4624C25.2723 17.7541 25.324 18.1487 25.324 18.6463V19.307C25.324 19.796 25.2809 20.1821 25.186 20.4824C25.0911 20.7741 24.9445 20.9972 24.7375 21.1344C24.5305 21.2717 24.2458 21.3403 23.8922 21.3403C23.5299 21.3318 23.2366 21.2631 23.0296 21.1259ZM24.1941 20.4052C24.2544 20.2593 24.2803 20.0105 24.2803 19.6759V18.2517C24.2803 17.9257 24.2544 17.6854 24.1941 17.531C24.1337 17.3766 24.0388 17.3079 23.8922 17.3079C23.7542 17.3079 23.6507 17.3851 23.5989 17.531C23.5385 17.6854 23.5126 17.9257 23.5126 18.2517V19.6759C23.5126 20.0105 23.5385 20.2593 23.5989 20.4052C23.6507 20.551 23.7542 20.6282 23.9008 20.6282C24.0388 20.6282 24.1337 20.5596 24.1941 20.4052Z" fill="#A6B1CE"/>
<path id="Vector_2" d="M20.511 19.2297L19.3379 15H20.3643L20.7784 16.9133C20.8819 17.3851 20.9595 17.7884 21.0112 18.123H21.0371C21.0716 17.8827 21.1493 17.4881 21.27 16.9218L21.7013 15H22.7277L21.5374 19.2297V21.2545H20.5196V19.2297H20.511Z" fill="#A6B1CE"/>
<path id="Vector_3" d="M28.6622 16.6902V21.2631H27.8514L27.7651 20.7054H27.7393C27.5236 21.1258 27.1872 21.3403 26.7473 21.3403C26.4454 21.3403 26.2212 21.2374 26.0745 21.04C25.9279 20.8427 25.8589 20.5338 25.8589 20.1049V16.6902H26.894V20.0448C26.894 20.2507 26.9198 20.3966 26.963 20.4824C27.0061 20.5682 27.0837 20.6111 27.1872 20.6111C27.2735 20.6111 27.3597 20.5853 27.446 20.5253C27.5322 20.4738 27.5926 20.4052 27.6271 20.3194V16.6902H28.6622Z" fill="#A6B1CE"/>
</g>
</g>
</g>
</g>
</svg>
