<svg width="48" height="48" viewBox="0 0 48 48" fill="none" xmlns="http://www.w3.org/2000/svg"><rect width="48" height="48" rx="24" fill="#13317D" fill-opacity=".4"/><path d="M20.654 19c.462 0 .888.035 1.279.141.39.071.71.212.994.389.285.177.498.424.64.742.142.318.213.707.213 1.13 0 .495-.107.92-.355 1.238-.213.318-.569.6-.995.812.604.177 1.066.495 1.35.919.284.424.462.954.462 1.555 0 .495-.107.919-.285 1.272a2.355 2.355 0 01-.781.883 3.69 3.69 0 01-1.137.495 5.31 5.31 0 01-1.279.177H16V19h4.654zm-.285 3.958c.391 0 .711-.106.96-.283.248-.177.355-.495.355-.884 0-.212-.036-.424-.107-.565a1.005 1.005 0 00-.32-.353 1.788 1.788 0 00-.461-.177c-.178-.035-.355-.035-.569-.035h-2.06v2.297h2.202zm.107 4.17c.213 0 .426-.036.604-.072a1.249 1.249 0 00.853-.6c.07-.177.142-.389.142-.636 0-.495-.142-.848-.427-1.096-.284-.212-.675-.318-1.136-.318h-2.345v2.721h2.31zm6.856-.036c.284.283.71.424 1.28.424.39 0 .745-.106 1.03-.283.284-.212.461-.424.532-.636h1.741c-.284.848-.71 1.449-1.279 1.838-.568.353-1.243.565-2.06.565a4.197 4.197 0 01-1.528-.283 2.838 2.838 0 01-1.137-.777 2.8 2.8 0 01-.71-1.166c-.178-.46-.249-.954-.249-1.52 0-.53.071-1.024.249-1.484.177-.459.426-.848.746-1.201.32-.318.71-.6 1.137-.777a4.005 4.005 0 011.492-.283c.604 0 1.136.106 1.598.353.462.248.817.53 1.102.954.284.389.497.848.639 1.343.071.495.107.99.071 1.555h-5.151c0 .565.213 1.095.497 1.378zm2.238-3.71c-.248-.248-.64-.39-1.1-.39a1.7 1.7 0 00-.782.178c-.214.106-.356.247-.498.388a.94.94 0 00-.248.495c-.036.177-.072.318-.072.46h3.198c-.071-.53-.249-.884-.498-1.131zm-3.126-3.71h3.979v.953h-3.979v-.954z" fill="#A6B1CE"/></svg>