<svg width="54" height="54" viewBox="0 0 54 54" fill="none" xmlns="http://www.w3.org/2000/svg"><circle cx="27" cy="27" r="27" fill="#13317D" fill-opacity=".4"/><g clip-path="url(#clip0)" fill="#A6B1CE"><path d="M32.86 18.21h-4.688a4.107 4.107 0 00-4.102 4.102 4.108 4.108 0 003.516 4.06v1.8a.585.585 0 001 .414l2.172-2.172h2.101c2.262 0 4.141-1.84 4.141-4.102 0-2.26-1.88-4.101-4.14-4.101zm-4.688 4.688a.586.586 0 110-1.172.586.586 0 010 1.172zm2.344 0a.586.586 0 110-1.172.586.586 0 010 1.172zm2.343 0a.586.586 0 110-1.172.586.586 0 010 1.172z"/><path d="M30.164 35.79a1.76 1.76 0 001.758-1.759v-2.343a.585.585 0 00-.4-.556l-3.508-1.172a.586.586 0 00-.51.068l-1.492.994c-1.579-.753-3.453-2.627-4.206-4.206l.994-1.491c.1-.151.125-.34.068-.51l-1.172-3.508a.585.585 0 00-.555-.4h-2.383c-.97 0-1.758.78-1.758 1.749 0 6.75 6.413 13.133 13.164 13.133z"/></g><defs><clipPath id="clip0"><path fill="#fff" transform="translate(17 17)" d="M0 0h20v20H0z"/></clipPath></defs></svg>