<svg width="54" height="54" viewBox="0 0 54 54" fill="none" xmlns="http://www.w3.org/2000/svg"><circle cx="27" cy="27" r="27" fill="#13317D" fill-opacity=".4"/><g clip-path="url(#clip0)" fill="#A6B1CE"><path d="M21.077 37h11.845a1.49 1.49 0 001.49-1.49v-7.447H19.588v7.447c0 .823.667 1.49 1.49 1.49zm-2.415-11.7v2h16.676v-2a1.49 1.49 0 00-1.49-1.489h-4.36c2.071 0 5.049-2.01 4.396-4.14-.544-1.78-2.18-2.681-3.85-2.67-2.36.012-2.97 4.958-2.97 4.958H27s-.611-4.945-2.97-4.959c-1.672-.01-3.307.89-3.851 2.67-.653 2.131 2.325 4.141 4.396 4.141h-4.424a1.49 1.49 0 00-1.49 1.49zm13.107-6.502s-.073 2.433-3.344 4.251c0 0 .618-3.125 3.343-4.251zm-9.447 0c2.725 1.126 3.343 4.251 3.343 4.251-3.27-1.818-3.343-4.251-3.343-4.251z"/></g><defs><clipPath id="clip0"><path fill="#fff" transform="translate(17 17)" d="M0 0h20v20H0z"/></clipPath></defs></svg>