<svg width="54" height="54" viewBox="0 0 54 54" fill="none" xmlns="http://www.w3.org/2000/svg"><circle cx="27" cy="27" r="27" fill="#13317D" fill-opacity=".4"/><g clip-path="url(#clip0)" fill="#A6B1CE"><path d="M23.451 34.76a.924.924 0 01-.921.922h-3.81a.924.924 0 01-.921-.922v-4.178c0-.507.414-.922.921-.922h3.81c.507 0 .921.415.921.922v4.178zm6.775 0a.924.924 0 01-.922.922h-3.81a.924.924 0 01-.921-.922v-6.39c0-.507.415-.922.922-.922h3.81c.506 0 .92.415.92.922v6.39zm6.774 0a.924.924 0 01-.922.922h-3.81a.924.924 0 01-.92-.922v-8.848c0-.507.414-.921.92-.921h3.81c.507 0 .922.414.922.921v8.848zm-.797-16.425l-4.14 1.007c-.329.08-.402.34-.163.58l.884.862c.074.085-.014.197-.084.245a26.3 26.3 0 01-2.66 1.573c-6.642 3.466-12.118 3.254-12.2 3.25a.8.8 0 00-.082 1.595c.032.002.164.008.385.008 1.42 0 6.52-.245 12.637-3.436 1.447-.755 2.45-1.407 3.036-1.819.083-.058.227-.159.36-.023l.966.966c.24.239.499.165.577-.163l.94-4.192c.077-.328-.128-.532-.456-.453z"/></g><defs><clipPath id="clip0"><path fill="#fff" transform="translate(17 17)" d="M0 0h20v20H0z"/></clipPath></defs></svg>