<svg width="175" height="206" viewBox="0 0 175 206" fill="none" xmlns="http://www.w3.org/2000/svg"><g filter="url(#filter0_d)"><path d="M139.641 60.015c20.479 15.063 20.479 46.131 0 61.194l-60.92 44.808C54.225 184.034 20 166.201 20 135.42V45.804C20 15.022 54.225-2.81 78.721 15.207l60.92 44.808z" fill="url(#paint0_linear)"/><path d="M139.049 60.82c19.935 14.664 19.935 44.92-.001 59.583l-60.92 44.808C54.322 182.722 21 165.417 21 135.42V45.804c0-29.997 33.321-47.302 57.129-29.791l60.92 44.808z" stroke="url(#paint1_linear)" stroke-width="2"/></g><g clip-path="url(#clip0)"><path d="M101.995 86.553L73.183 69.755c-4.19-2.443-7.586-.438-7.586 4.477v33.489c0 4.915 3.396 6.919 7.586 4.476l28.812-16.798c4.189-2.442 4.189-6.403 0-8.846z" fill="#fff"/></g><defs><linearGradient id="paint0_linear" x1="155" y1="90.612" x2="20" y2="90.612" gradientUnits="userSpaceOnUse"><stop stop-color="#6159FE"/><stop offset="1" stop-color="#A392F9"/></linearGradient><linearGradient id="paint1_linear" x1="155" y1="90.612" x2="20" y2="90.612" gradientUnits="userSpaceOnUse"><stop stop-color="#F5F5F5"/><stop offset="1" stop-color="#945AFB" stop-opacity=".2"/></linearGradient><clipPath id="clip0"><path fill="#fff" transform="translate(63.5 68.714)" d="M0 0h43.733v44.524H0z"/></clipPath><filter id="filter0_d" x="0" y="0" width="175" height="205.224" filterUnits="userSpaceOnUse" color-interpolation-filters="sRGB"><feFlood flood-opacity="0" result="BackgroundImageFix"/><feColorMatrix in="SourceAlpha" values="0 0 0 0 0 0 0 0 0 0 0 0 0 0 0 0 0 0 127 0" result="hardAlpha"/><feOffset dy="12"/><feGaussianBlur stdDeviation="10"/><feComposite in2="hardAlpha" operator="out"/><feColorMatrix values="0 0 0 0 0.490196 0 0 0 0 0.443137 0 0 0 0 0.992157 0 0 0 0.3 0"/><feBlend in2="BackgroundImageFix" result="effect1_dropShadow"/><feBlend in="SourceGraphic" in2="effect1_dropShadow" result="shape"/></filter></defs></svg>