<svg width="54" height="54" viewBox="0 0 54 54" fill="none" xmlns="http://www.w3.org/2000/svg"><circle cx="27" cy="27" r="27" fill="#13317D" fill-opacity=".4"/><path d="M25.242 27.586h3.516v1.172h-3.516v-1.172z" fill="#A6B1CE"/><path d="M33.226 28.758H29.93v.586a.586.586 0 01-.586.586h-4.688a.586.586 0 01-.586-.586v-.586h-3.296a1.756 1.756 0 01-1.667-1.202L17 21.235V34.03c0 .97.789 1.758 1.758 1.758h16.484A1.76 1.76 0 0037 34.031V21.235l-2.107 6.321a1.756 1.756 0 01-1.667 1.202z" fill="#A6B1CE"/><path d="M29.344 18.21h-4.688a1.76 1.76 0 00-1.758 1.759v.586h-4.89l2.21 6.63c.08.24.304.4.556.4h3.296V27c0-.324.262-.586.586-.586h4.688c.323 0 .586.262.586.586v.586h3.296a.586.586 0 00.556-.4l2.21-6.631h-4.89v-.586a1.76 1.76 0 00-1.758-1.758zm-5.274 2.345v-.586c0-.324.263-.586.586-.586h4.688c.323 0 .586.262.586.586v.586h-5.86z" fill="#A6B1CE"/></svg>