<svg width="1202" height="989" viewBox="0 0 1202 989" fill="none" xmlns="http://www.w3.org/2000/svg"><path opacity=".1" d="M1140 40c-33.67 282.463-67.33 564.926-101 847.389 1.74.201 3.47.405 5.21.611L1140 40z" fill="url(#paint0_linear)"/><path opacity=".1" d="M1131 38c-61.67 284.216-123.33 568.433-185 852.65 1.571.114 3.142.231 4.713.35C1010.81 606.667 1070.9 322.333 1131 38z" fill="url(#paint1_linear)"/><path opacity=".1" d="M1128 52c-95.33 278.641-190.667 557.283-286 835.924 1.612.023 3.225.048 4.837.076C940.558 609.333 1034.28 330.667 1128 52z" fill="url(#paint2_linear)"/><path opacity=".1" d="M1125 49L738 895c1.631-.068 3.263-.133 4.894-.196L1125 49z" fill="url(#paint3_linear)"/><path opacity=".1" d="M1127 40L638 895a1642 1642 0 014.929-.472L1127 40z" fill="url(#paint4_linear)"/><path opacity=".1" d="M1131 20L540 891c1.647-.253 3.294-.503 4.941-.751L1131 20z" fill="url(#paint5_linear)"/><path opacity=".1" d="M1129 14L450 891c1.613-.341 3.225-.68 4.838-1.016L1129 14z" fill="url(#paint6_linear)"/><path opacity=".1" d="M1149-18L360 899c1.628-.441 3.256-.88 4.885-1.317L1149-18z" fill="url(#paint7_linear)"/><path opacity=".1" d="M1149-18L287 904a1724.78 1724.78 0 014.704-1.559L1149-18z" fill="url(#paint8_linear)"/><path opacity=".1" d="M1149-18L243 899c1.468-.589 2.937-1.176 4.406-1.761L1149-18z" fill="url(#paint9_linear)"/><path opacity=".1" d="M1149-18L203 895c1.378-.648 2.756-1.294 4.135-1.938L1149-18z" fill="url(#paint10_linear)"/><path opacity=".1" d="M1149-18L144 888c1.324-.696 2.649-1.391 3.974-2.083L1149-18z" fill="url(#paint11_linear)"/><path opacity=".1" d="M1149-18L144 904c1.204-.755 2.408-1.508 3.613-2.259L1149-18z" fill="url(#paint12_linear)"/><path opacity=".1" d="M1149-18L101 904c1.146-.793 2.292-1.584 3.44-2.374L1149-18z" fill="url(#paint13_linear)"/><path opacity=".1" d="M1149-18L124 899c1.026-.82 2.053-1.638 3.081-2.455L1149-18z" fill="url(#paint14_linear)"/><path opacity=".1" d="M1149-18L151 895l1.379-1.259L1149-18z" fill="url(#paint15_linear)"/><path opacity=".1" d="M1149-18l48.42 911.944c1.53.349 3.05.702 4.58 1.056-17.67-304.333-35.33-608.667-53-913z" fill="url(#paint16_linear)"/><path opacity=".1" d="M1149-18c-15.67 304.068-31.33 608.137-47 912.205 1.66.263 3.32.528 4.98.795 14.01-304.333 28.01-608.667 42.02-913z" fill="url(#paint17_linear)"/><path opacity=".1" d="M1140 42L993 887.52c1.671.158 3.342.318 5.012.48C1045.34 606 1092.67 324 1140 42z" fill="url(#paint18_linear)"/><path opacity=".1" d="M1131 46c-81.33 284.262-162.667 568.524-244 852.785 1.654.07 3.307.141 4.961.215L1131 46z" fill="url(#paint19_linear)"/><path opacity=".1" d="M1127 43c-113.33 281.667-226.667 563.333-340 845 1.64-.022 3.281-.042 4.921-.06C903.614 606.294 1015.31 324.647 1127 43z" fill="url(#paint20_linear)"/><path opacity=".1" d="M1129 46L690 899c1.642-.114 3.284-.226 4.926-.335L1129 46z" fill="url(#paint21_linear)"/><path opacity=".1" d="M1125 37L577 899c1.67-.206 3.34-.41 5.011-.611L1125 37z" fill="url(#paint22_linear)"/><path opacity=".1" d="M1125 18L489 904c1.631-.302 3.263-.601 4.895-.897L1125 18z" fill="url(#paint23_linear)"/><path opacity=".1" d="M1146-16L397 899c1.655-.399 3.31-.796 4.965-1.19L1146-16z" fill="url(#paint24_linear)"/><path opacity=".1" d="M1149-18L319 904c1.605-.484 3.211-.965 4.817-1.444L1149-18z" fill="url(#paint25_linear)"/><path opacity=".1" d="M1149-18L254 909c1.535-.561 3.07-1.12 4.605-1.677L1149-18z" fill="url(#paint26_linear)"/><path opacity=".1" d="M1149-18L214 904a1473.41 1473.41 0 014.307-1.867L1149-18z" fill="url(#paint27_linear)"/><path opacity=".1" d="M1149-18L164 914c1.363-.69 2.727-1.378 4.092-2.064L1149-18z" fill="url(#paint28_linear)"/><path opacity=".1" d="M1149-18L151 914c1.253-.741 2.506-1.479 3.761-2.216L1149-18z" fill="url(#paint29_linear)"/><path opacity=".1" d="M1149-18L144 904a1486 1486 0 013.451-2.319L1149-18z" fill="url(#paint30_linear)"/><path opacity=".1" d="M1149-18L177 862c1.017-.773 2.034-1.544 3.052-2.313L1149-18z" fill="url(#paint31_linear)"/><path opacity=".1" d="M1149-18L179 851c.93-.79 1.861-1.577 2.792-2.363L1149-18z" fill="url(#paint32_linear)"/><defs><linearGradient id="paint0_linear" x1="1088.2" y1="463.542" x2="1093.41" y2="464.146" gradientUnits="userSpaceOnUse"><stop stop-color="#7F8BFF"/><stop offset="1" stop-color="#433FFF"/></linearGradient><linearGradient id="paint1_linear" x1="990.447" y1="457.951" x2="1086.85" y2="467.853" gradientUnits="userSpaceOnUse"><stop stop-color="#7F8BFF"/><stop offset="1" stop-color="#433FFF"/></linearGradient><linearGradient id="paint2_linear" x1="887.93" y1="457.57" x2="1082.5" y2="478.336" gradientUnits="userSpaceOnUse"><stop stop-color="#7F8BFF"/><stop offset="1" stop-color="#433FFF"/></linearGradient><linearGradient id="paint3_linear" x1="785.162" y1="453.328" x2="1078.48" y2="484.649" gradientUnits="userSpaceOnUse"><stop stop-color="#7F8BFF"/><stop offset="1" stop-color="#433FFF"/></linearGradient><linearGradient id="paint4_linear" x1="686.593" y1="442.653" x2="1079.21" y2="484.831" gradientUnits="userSpaceOnUse"><stop stop-color="#7F8BFF"/><stop offset="1" stop-color="#433FFF"/></linearGradient><linearGradient id="paint5_linear" x1="590.213" y1="424.449" x2="1081.78" y2="477.354" gradientUnits="userSpaceOnUse"><stop stop-color="#7F8BFF"/><stop offset="1" stop-color="#433FFF"/></linearGradient><linearGradient id="paint6_linear" x1="501.036" y1="415.914" x2="1079.15" y2="478.017" gradientUnits="userSpaceOnUse"><stop stop-color="#7F8BFF"/><stop offset="1" stop-color="#433FFF"/></linearGradient><linearGradient id="paint7_linear" x1="413.843" y1="397.248" x2="1096.58" y2="470.513" gradientUnits="userSpaceOnUse"><stop stop-color="#7F8BFF"/><stop offset="1" stop-color="#433FFF"/></linearGradient><linearGradient id="paint8_linear" x1="341.517" y1="395.12" x2="1096.08" y2="475.957" gradientUnits="userSpaceOnUse"><stop stop-color="#7F8BFF"/><stop offset="1" stop-color="#433FFF"/></linearGradient><linearGradient id="paint9_linear" x1="296.996" y1="389.171" x2="1096.9" y2="473.889" gradientUnits="userSpaceOnUse"><stop stop-color="#7F8BFF"/><stop offset="1" stop-color="#433FFF"/></linearGradient><linearGradient id="paint10_linear" x1="256.867" y1="384.367" x2="1097.2" y2="473.015" gradientUnits="userSpaceOnUse"><stop stop-color="#7F8BFF"/><stop offset="1" stop-color="#433FFF"/></linearGradient><linearGradient id="paint11_linear" x1="199.311" y1="378.922" x2="1095.3" y2="476.271" gradientUnits="userSpaceOnUse"><stop stop-color="#7F8BFF"/><stop offset="1" stop-color="#433FFF"/></linearGradient><linearGradient id="paint12_linear" x1="197.984" y1="384.155" x2="1097.54" y2="477.571" gradientUnits="userSpaceOnUse"><stop stop-color="#7F8BFF"/><stop offset="1" stop-color="#433FFF"/></linearGradient><linearGradient id="paint13_linear" x1="156.403" y1="382.956" x2="1095.75" y2="482.838" gradientUnits="userSpaceOnUse"><stop stop-color="#7F8BFF"/><stop offset="1" stop-color="#433FFF"/></linearGradient><linearGradient id="paint14_linear" x1="177.711" y1="380.113" x2="1097.93" y2="475.367" gradientUnits="userSpaceOnUse"><stop stop-color="#7F8BFF"/><stop offset="1" stop-color="#433FFF"/></linearGradient><linearGradient id="paint15_linear" x1="203.158" y1="378.173" x2="1099.89" y2="468.67" gradientUnits="userSpaceOnUse"><stop stop-color="#7F8BFF"/><stop offset="1" stop-color="#433FFF"/></linearGradient><linearGradient id="paint16_linear" x1="1104.94" y1="428.752" x2="1246.61" y2="442.725" gradientUnits="userSpaceOnUse"><stop stop-color="#7F8BFF"/><stop offset="1" stop-color="#433FFF"/></linearGradient><linearGradient id="paint17_linear" x1="1101.76" y1="435.072" x2="1154.36" y2="440.557" gradientUnits="userSpaceOnUse"><stop stop-color="#7F8BFF"/><stop offset="1" stop-color="#433FFF"/></linearGradient><linearGradient id="paint18_linear" x1="1040.26" y1="461.537" x2="1092.81" y2="467.367" gradientUnits="userSpaceOnUse"><stop stop-color="#7F8BFF"/><stop offset="1" stop-color="#433FFF"/></linearGradient><linearGradient id="paint19_linear" x1="933.898" y1="462.882" x2="1084.41" y2="479.075" gradientUnits="userSpaceOnUse"><stop stop-color="#7F8BFF"/><stop offset="1" stop-color="#433FFF"/></linearGradient><linearGradient id="paint20_linear" x1="834.03" y1="449.893" x2="1080.48" y2="476.349" gradientUnits="userSpaceOnUse"><stop stop-color="#7F8BFF"/><stop offset="1" stop-color="#433FFF"/></linearGradient><linearGradient id="paint21_linear" x1="737.97" y1="450.657" x2="1081.77" y2="487.441" gradientUnits="userSpaceOnUse"><stop stop-color="#7F8BFF"/><stop offset="1" stop-color="#433FFF"/></linearGradient><linearGradient id="paint22_linear" x1="627.106" y1="440.059" x2="1075.65" y2="489.03" gradientUnits="userSpaceOnUse"><stop stop-color="#7F8BFF"/><stop offset="1" stop-color="#433FFF"/></linearGradient><linearGradient id="paint23_linear" x1="539.638" y1="426.662" x2="1075.62" y2="483.521" gradientUnits="userSpaceOnUse"><stop stop-color="#7F8BFF"/><stop offset="1" stop-color="#433FFF"/></linearGradient><linearGradient id="paint24_linear" x1="450.489" y1="400.76" x2="1093.84" y2="469.829" gradientUnits="userSpaceOnUse"><stop stop-color="#7F8BFF"/><stop offset="1" stop-color="#433FFF"/></linearGradient><linearGradient id="paint25_linear" x1="373.402" y1="397.234" x2="1096.1" y2="474.817" gradientUnits="userSpaceOnUse"><stop stop-color="#7F8BFF"/><stop offset="1" stop-color="#433FFF"/></linearGradient><linearGradient id="paint26_linear" x1="308.844" y1="395.401" x2="1095.88" y2="479.444" gradientUnits="userSpaceOnUse"><stop stop-color="#7F8BFF"/><stop offset="1" stop-color="#433FFF"/></linearGradient><linearGradient id="paint27_linear" x1="268.383" y1="389.779" x2="1096.61" y2="477.37" gradientUnits="userSpaceOnUse"><stop stop-color="#7F8BFF"/><stop offset="1" stop-color="#433FFF"/></linearGradient><linearGradient id="paint28_linear" x1="219.068" y1="391.446" x2="1096.11" y2="483.871" gradientUnits="userSpaceOnUse"><stop stop-color="#7F8BFF"/><stop offset="1" stop-color="#433FFF"/></linearGradient><linearGradient id="paint29_linear" x1="205.202" y1="389.339" x2="1097.4" y2="481.51" gradientUnits="userSpaceOnUse"><stop stop-color="#7F8BFF"/><stop offset="1" stop-color="#433FFF"/></linearGradient><linearGradient id="paint30_linear" x1="197.504" y1="383.487" x2="1098.21" y2="476.071" gradientUnits="userSpaceOnUse"><stop stop-color="#7F8BFF"/><stop offset="1" stop-color="#433FFF"/></linearGradient><linearGradient id="paint31_linear" x1="228.117" y1="364.311" x2="1100.53" y2="453.915" gradientUnits="userSpaceOnUse"><stop stop-color="#7F8BFF"/><stop offset="1" stop-color="#433FFF"/></linearGradient><linearGradient id="paint32_linear" x1="229.726" y1="359.126" x2="1100.84" y2="448.961" gradientUnits="userSpaceOnUse"><stop stop-color="#7F8BFF"/><stop offset="1" stop-color="#433FFF"/></linearGradient></defs></svg>