<svg width="54" height="54" viewBox="0 0 54 54" fill="none" xmlns="http://www.w3.org/2000/svg"><circle cx="27" cy="27" r="27" fill="#13317D" fill-opacity=".4"/><g clip-path="url(#clip0)" fill="#A6B1CE"><path d="M23.191 20.404a.586.586 0 00.215-.8l-.586-1.016a.585.585 0 10-1.015.586l.586 1.015a.587.587 0 00.8.215zm-3.588 10.19l-1.015.586a.586.586 0 10.586 1.015l1.015-.586a.586.586 0 10-.586-1.015zm14.794-7.188l1.015-.586a.586.586 0 10-.586-1.015l-1.015.586a.586.586 0 10.586 1.015zm-.587 8.204l1.016.585a.587.587 0 00.586-1.015l-1.015-.586a.587.587 0 00-.586 1.015zm-13.62-9.22l-1.016-.585a.586.586 0 10-.586 1.015l1.015.586a.587.587 0 00.586-1.015zm11.42-2.201l.585-1.015a.586.586 0 10-1.015-.586l-.586 1.015a.586.586 0 101.015.586zm-4.024-1.392v-1.211a.586.586 0 10-1.172 0v1.21a.586.586 0 101.172 0zm-10 8.789h1.21a.586.586 0 100-1.172h-1.21a.586.586 0 100 1.172zm18.828-1.172h-1.21a.586.586 0 100 1.172h1.21a.586.586 0 100-1.172zm-8.828.724L27 25.967l-.586 1.171v.448h1.172v-.448zm-1.172 1.62h1.172v2.344h-1.172v-2.344z"/><path d="M20.652 25.863a6.469 6.469 0 001.9 5.794c.965.92 1.518 2.251 1.518 3.585 0 .97.789 1.758 1.758 1.758h2.344a1.76 1.76 0 001.758-1.758c0-1.334.553-2.665 1.518-3.584A6.376 6.376 0 0033.445 27a6.44 6.44 0 00-6.42-6.443 6.406 6.406 0 00-6.372 5.306zM25.242 27c0-.091.021-.18.062-.262l1.172-2.344c.199-.397.849-.397 1.048 0l1.172 2.344c.04.081.062.171.062.262v4.687a.586.586 0 01-.586.586h-2.344a.586.586 0 01-.586-.586V27z"/></g><defs><clipPath id="clip0"><path fill="#fff" transform="translate(17 17)" d="M0 0h20v20H0z"/></clipPath></defs></svg>