<svg width="48" height="48" viewBox="0 0 48 48" fill="none" xmlns="http://www.w3.org/2000/svg"><rect width="48" height="48" rx="24" fill="#13317D" fill-opacity=".4"/><path d="M21.334 24a2.667 2.667 0 115.333 0 2.667 2.667 0 01-5.333 0zm-1.442 0a4.108 4.108 0 108.216 0 4.108 4.108 0 00-8.216 0zm7.419-4.27a.96.96 0 10.96-.96.96.96 0 00-.96.96zm-6.543 10.782c-.78-.035-1.204-.165-1.486-.275a2.486 2.486 0 01-.92-.598 2.47 2.47 0 01-.598-.92c-.11-.281-.24-.706-.275-1.486-.04-.843-.047-1.096-.047-3.233 0-2.136.009-2.389.047-3.233.035-.78.166-1.203.275-1.485.145-.374.319-.64.598-.92.28-.28.546-.454.92-.599.282-.11.706-.24 1.486-.275.843-.039 1.097-.047 3.232-.047 2.136 0 2.39.009 3.233.047.78.035 1.204.166 1.486.275.374.145.64.319.92.598.28.28.453.547.599.92.11.282.24.706.275 1.486.039.844.046 1.097.046 3.233 0 2.137-.007 2.39-.046 3.233-.036.78-.166 1.204-.275 1.486a2.48 2.48 0 01-.599.92c-.28.28-.546.453-.92.598-.282.11-.706.24-1.486.275-.843.04-1.096.047-3.233.047-2.136 0-2.389-.008-3.232-.047zm-.066-14.464c-.852.04-1.434.174-1.942.372a3.927 3.927 0 00-1.417.923 3.9 3.9 0 00-.923 1.417c-.198.509-.333 1.09-.372 1.942C16.01 21.555 16 21.828 16 24c0 2.173.009 2.446.048 3.299.04.851.174 1.433.372 1.942.204.526.478.972.923 1.417.445.444.89.718 1.417.923.51.197 1.09.332 1.942.371.853.039 1.126.049 3.298.049 2.173 0 2.446-.01 3.299-.049.851-.039 1.433-.174 1.942-.371a3.934 3.934 0 001.417-.923 3.92 3.92 0 00.923-1.417c.197-.509.333-1.09.371-1.942.039-.854.048-1.126.048-3.299 0-2.172-.009-2.445-.048-3.298-.039-.852-.174-1.434-.371-1.942a3.934 3.934 0 00-.923-1.417 3.917 3.917 0 00-1.417-.923c-.509-.198-1.09-.333-1.942-.372-.853-.038-1.125-.048-3.298-.048s-2.446.009-3.3.048z" fill="#A6B1CE"/></svg>