<svg width="230" height="40" viewBox="0 0 230 40" fill="none" xmlns="http://www.w3.org/2000/svg"><path d="M90.292 11.274L88.59 13.43l-1.701-2.157-2.735-3.468h-3.502l4.181 5.321 2.374 3.02.008 4.774h2.75l-.008-4.772 2.375-3.022 4.181-5.32h-3.487l-2.734 3.466zm12.244-3.468c-.002 0-.003.001-.003.002l-5.859 13.113h2.76l1.201-2.898h6.571l1.201 2.898h2.837l-5.879-13.115h-2.829zm-1.064 8.251l2.458-5.922 2.459 5.922h-4.917zm25.884-8.251h-2.925l-6.299 6.63v-6.63h-2.706v13.115h2.706v-3.298l2.039-2.12 4.424 5.418h3.138l-5.792-7.302 5.415-5.813zm14.222.651c-1.089-.585-2.333-.883-3.699-.883-1.366 0-2.614.298-3.709.884a6.578 6.578 0 00-2.574 2.428c-.617 1.024-.929 2.194-.929 3.478 0 1.283.312 2.453.929 3.478a6.571 6.571 0 002.574 2.427c1.095.587 2.343.884 3.709.884s2.611-.297 3.699-.884a6.667 6.667 0 002.575-2.428c.623-1.025.938-2.195.938-3.477 0-1.283-.315-2.453-.938-3.478a6.673 6.673 0 00-2.575-2.429zm.171 8.248a4.18 4.18 0 01-1.598 1.614 4.533 4.533 0 01-2.272.579 4.533 4.533 0 01-2.272-.579 4.18 4.18 0 01-1.598-1.614c-.384-.684-.578-1.472-.578-2.341 0-.869.194-1.657.578-2.342a4.177 4.177 0 011.599-1.615c.673-.383 1.438-.577 2.271-.577s1.598.194 2.272.577a4.181 4.181 0 011.598 1.615c.384.685.578 1.473.578 2.342 0 .87-.194 1.656-.578 2.341zm28.395-8.899h-2.726v13.115h9.525v-2.139h-6.799V7.806zm14.748 11.014v-3.54h6.296v-2.024h-6.296V9.907h7.128v-2.1h-9.834V20.92h9.834v-2.1h-7.128zm-29.677-1.037l-.012-.023-.012.023-5.086-9.977h-2.939l6.665 13.115h2.745l6.665-13.115h-2.94l-5.086 9.977zm48.276 0l-.012-.023-.012.023-5.086-9.977h-2.94l6.665 13.115h2.745l6.665-13.115h-2.939l-5.086 9.977zm18.484 0l-.012-.024-.012.024-5.086-9.977h-2.94l6.665 13.115h2.745L230 7.806h-2.939l-5.086 9.977zm-118.897 8.89h2.403c.603 0 1.137.12 1.604.358.467.238.83.573 1.088 1.003.258.43.387.925.387 1.483s-.129 1.052-.387 1.483c-.258.43-.621.765-1.088 1.003-.467.239-1.001.358-1.604.358h-2.403v-5.688zm2.354 4.98c.461 0 .868-.089 1.218-.267.35-.18.62-.43.81-.752.19-.322.285-.695.285-1.117 0-.422-.095-.795-.285-1.117a1.942 1.942 0 00-.81-.752c-.35-.179-.757-.268-1.218-.268h-1.539v4.274h1.539zm9.765.001v.707h-4.137v-5.688h4.024v.707h-3.209v1.747h2.858v.69h-2.858v1.837h3.322zm2.993.573c-.399-.133-.712-.305-.94-.516l.301-.634c.217.195.496.353.835.475.339.122.688.183 1.046.183.473 0 .826-.08 1.059-.24.234-.16.35-.372.35-.637a.626.626 0 00-.191-.476 1.286 1.286 0 00-.472-.28 8.838 8.838 0 00-.794-.22 8.21 8.21 0 01-1.039-.308 1.722 1.722 0 01-.676-.475c-.187-.214-.281-.503-.281-.866 0-.303.08-.577.241-.82.16-.244.403-.439.728-.585.326-.146.731-.22 1.214-.22.336 0 .668.044.994.13.326.087.605.212.838.374l-.268.65a2.952 2.952 0 00-.766-.345 2.865 2.865 0 00-.798-.118c-.462 0-.808.084-1.038.252-.231.168-.346.384-.346.65 0 .195.065.353.195.475s.292.217.485.284c.192.068.454.14.786.216.428.103.773.206 1.034.308.26.103.485.26.672.472.187.211.281.495.281.853 0 .298-.082.57-.245.816-.163.247-.41.442-.741.585-.331.144-.738.215-1.222.215-.429 0-.842-.066-1.242-.198zm5.893-5.554h.815v5.688h-.815v-5.688zm7.729 2.811h.782v2.218a3.035 3.035 0 01-.985.537 3.695 3.695 0 01-1.173.187 3.194 3.194 0 01-1.556-.378 2.805 2.805 0 01-1.482-2.531c0-.552.131-1.05.395-1.495.263-.444.627-.79 1.091-1.04a3.264 3.264 0 011.568-.374c.456 0 .87.075 1.242.224.372.149.689.367.949.654l-.505.503a2.297 2.297 0 00-1.653-.658c-.435 0-.824.094-1.169.28a2.051 2.051 0 00-.81.78 2.177 2.177 0 00-.294 1.126c0 .412.098.784.294 1.117.195.333.465.595.81.784.345.19.732.285 1.161.285.51 0 .955-.122 1.335-.366v-1.853zm8.495-2.811v5.688h-.668l-3.42-4.241v4.24h-.815v-5.687h.668l3.421 4.241v-4.24h.814zm6.996 5.103c-.423-.434-.635-1.057-.635-1.87v-3.233h.814v3.202c0 1.218.535 1.828 1.605 1.828.521 0 .92-.15 1.197-.451.277-.301.415-.76.415-1.377v-3.202h.79v3.234c0 .818-.211 1.442-.635 1.873-.424.43-1.016.645-1.775.645-.761 0-1.353-.216-1.776-.65zm12.013-5.103v5.688h-.668l-3.42-4.241v4.24h-.815v-5.687h.668l3.421 4.241v-4.24h.814zm2.965 0h.814v5.688h-.814v-5.688zm8.674 0l-2.5 5.688h-.807l-2.508-5.688h.879l2.053 4.672 2.068-4.672h.815zm6.116 4.981v.707h-4.137v-5.688h4.023v.707h-3.209v1.747h2.859v.69h-2.859v1.837h3.323zm6.385.706l-1.229-1.746c-.152.01-.272.016-.359.016h-1.409v1.73h-.814v-5.687h2.223c.738 0 1.319.176 1.743.528.424.353.636.837.636 1.455 0 .439-.109.812-.326 1.12-.218.31-.527.534-.929.675l1.352 1.91h-.888zm-.431-2.754c.271-.222.407-.539.407-.95 0-.412-.136-.727-.407-.947-.272-.22-.666-.329-1.181-.329h-1.385v2.56h1.385c.515 0 .909-.112 1.181-.334zm4.215 2.621c-.399-.133-.713-.305-.941-.516l.301-.634c.217.195.496.353.835.475.339.122.689.183 1.047.183.472 0 .825-.08 1.058-.24.234-.16.351-.372.351-.637a.627.627 0 00-.192-.476 1.278 1.278 0 00-.472-.28 8.743 8.743 0 00-.794-.22 8.21 8.21 0 01-1.039-.308 1.722 1.722 0 01-.676-.475c-.187-.214-.281-.503-.281-.866 0-.303.081-.577.241-.82.16-.244.403-.439.729-.585.325-.146.73-.22 1.213-.22.337 0 .668.044.994.13.326.087.605.212.839.374l-.269.65a2.952 2.952 0 00-.766-.345 2.86 2.86 0 00-.798-.118c-.461 0-.807.084-1.038.252-.231.168-.346.384-.346.65 0 .195.065.353.195.475.131.122.292.217.485.284.192.068.455.14.786.216.428.103.773.206 1.034.308.261.103.485.26.672.472.187.211.281.495.281.853 0 .298-.082.57-.245.816-.162.247-.409.442-.741.585-.331.144-.738.215-1.221.215-.429 0-.843-.066-1.242-.198zm5.892-5.554h.815v5.688h-.815v-5.688zm4.911.707h-1.954v-.707h4.715v.707h-1.955v4.98h-.806v-4.98zm7.021 3.014v1.967h-.806v-1.983l-2.265-3.705h.872l1.825 2.998 1.832-2.998h.806l-2.264 3.721z" fill="#FBFBFB"/><path d="M49.834 0h-7.646c-1.63 0-3.165.771-4.149 2.083L35.022 6.11l-3.093-4.06A5.186 5.186 0 0027.805 0h-7.594l9.874 12.666L35.022 19l4.938-6.333L49.834 0z" fill="url(#paint0_linear)"/><path d="M70 0h-8.16c-.598 0-1.179.139-1.703.396a3.897 3.897 0 00-1.36 1.109L45.881 18.109l-6.114 7.867a3.7 3.7 0 00-.777 2.27V40L70 0z" fill="url(#paint1_linear)"/><path d="M30.233 25.976l-6.114-7.867L11.223 1.505A3.897 3.897 0 009.863.396 3.862 3.862 0 008.159 0H0l31.01 40V28.246a3.7 3.7 0 00-.777-2.27z" fill="url(#paint2_linear)"/><defs><linearGradient id="paint0_linear" x1="20.211" y1="9.5" x2="49.834" y2="9.5" gradientUnits="userSpaceOnUse"><stop stop-color="#42B2FE"/><stop offset="1" stop-color="#A646F9"/></linearGradient><linearGradient id="paint1_linear" x1="38.99" y1="20" x2="70" y2="20" gradientUnits="userSpaceOnUse"><stop stop-color="#4E96FF"/><stop offset="1" stop-color="#6044FB"/></linearGradient><linearGradient id="paint2_linear" x1="0" y1="20" x2="31.01" y2="20" gradientUnits="userSpaceOnUse"><stop stop-color="#B5A2F6"/><stop offset="1" stop-color="#433FFF"/></linearGradient></defs></svg>