<svg width="48" height="48" viewBox="0 0 48 48" fill="none" xmlns="http://www.w3.org/2000/svg"><rect width="48" height="48" rx="24" fill="#13317D" fill-opacity=".4"/><path d="M17.1 23.027c4.295-1.976 7.159-3.278 8.592-3.908 4.091-1.796 4.942-2.108 5.496-2.119.122-.002.394.03.57.181.15.128.19.3.21.421.02.121.044.397.025.613-.222 2.46-1.181 8.428-1.67 11.183-.206 1.166-.613 1.557-1.006 1.595-.856.083-1.505-.597-2.334-1.17-1.297-.898-2.03-1.457-3.288-2.332-1.455-1.012-.512-1.569.317-2.478.217-.238 3.987-3.858 4.06-4.186.01-.041.018-.194-.069-.275-.086-.081-.213-.053-.305-.032-.13.032-2.201 1.477-6.214 4.337-.588.427-1.12.634-1.598.623-.526-.012-1.538-.314-2.29-.572-.923-.316-1.656-.484-1.592-1.022.033-.28.398-.566 1.096-.859z" fill="#A6B1CE"/></svg>