<svg width="49" height="48" viewBox="0 0 49 48" fill="none" xmlns="http://www.w3.org/2000/svg"><ellipse rx="17.401" ry="17.402" transform="matrix(-.84602 .53314 .53334 .8459 24.002 23.997)" fill="#4285F4"/><ellipse rx="17.401" ry="17.402" transform="matrix(-.84602 .53314 .53334 .8459 24.002 23.997)" fill="url(#paint0_linear)"/><ellipse rx="17.401" ry="17.402" transform="matrix(-.84602 .53314 .53334 .8459 24.002 23.997)" fill="url(#paint1_linear)"/><g clip-path="url(#clip0)"><path d="M28.25 24.033a.762.762 0 00-.273-.575l-5.7-4.988a1.024 1.024 0 00-1.313 0 .743.743 0 000 1.149l5.044 4.414-5.043 4.414a.743.743 0 000 1.149c.362.317.95.317 1.313 0l5.7-4.989a.762.762 0 00.271-.574z" fill="#fff"/></g><defs><linearGradient id="paint0_linear" x1="0" y1="17.402" x2="34.801" y2="17.402" gradientUnits="userSpaceOnUse"><stop stop-color="#4E96FF"/><stop offset="1" stop-color="#6044FB"/></linearGradient><linearGradient id="paint1_linear" x1="-2.531" y1="15.781" x2="35.444" y2="22.587" gradientUnits="userSpaceOnUse"><stop stop-color="#B5A2F6"/><stop offset="1" stop-color="#433FFF"/></linearGradient><clipPath id="clip0"><path fill="#fff" transform="matrix(0 1 1 0 17.843 18.232)" d="M0 0h11.602v13.257H0z"/></clipPath><filter id="filter0_d" x="3.194" y="6.595" width="42.81" height="42.804" filterUnits="userSpaceOnUse" color-interpolation-filters="sRGB"><feFlood flood-opacity="0" result="BackgroundImageFix"/><feColorMatrix in="SourceAlpha" values="0 0 0 0 0 0 0 0 0 0 0 0 0 0 0 0 0 0 127 0" result="hardAlpha"/><feOffset dy="4"/><feGaussianBlur stdDeviation="2"/><feComposite in2="hardAlpha" operator="out"/><feColorMatrix values="0 0 0 0 0 0 0 0 0 0 0 0 0 0 0 0 0 0 0.25 0"/><feBlend in2="BackgroundImageFix" result="effect1_dropShadow"/><feBlend in="SourceGraphic" in2="effect1_dropShadow" result="shape"/></filter></defs></svg>