<svg width="49" height="50" viewBox="0 0 49 50" fill="none" xmlns="http://www.w3.org/2000/svg"><g filter="url(#filter0_d)"><path d="M39.32 33.275c-5.126 8.13-15.872 10.567-24.002 5.443-8.13-5.124-10.566-15.868-5.44-23.998S25.75 4.154 33.88 9.278c8.13 5.123 10.566 15.868 5.44 23.998z" fill="#4285F4"/><path d="M39.32 33.275c-5.126 8.13-15.872 10.567-24.002 5.443-8.13-5.124-10.566-15.868-5.44-23.998S25.75 4.154 33.88 9.278c8.13 5.123 10.566 15.868 5.44 23.998z" fill="url(#paint0_linear)"/><path d="M39.32 33.275c-5.126 8.13-15.872 10.567-24.002 5.443-8.13-5.124-10.566-15.868-5.44-23.998S25.75 4.154 33.88 9.278c8.13 5.123 10.566 15.868 5.44 23.998z" fill="url(#paint1_linear)"/><g clip-path="url(#clip0)"><path d="M20.352 24.033a.76.76 0 01.272-.575l5.7-4.988c.362-.318.95-.318 1.313 0a.743.743 0 010 1.149l-5.044 4.414 5.044 4.414a.743.743 0 010 1.149c-.363.317-.95.317-1.313 0l-5.7-4.989a.762.762 0 01-.272-.574z" fill="#fff"/></g></g><defs><linearGradient id="paint0_linear" x1="9.878" y1="14.72" x2="39.316" y2="33.281" gradientUnits="userSpaceOnUse"><stop stop-color="#4E96FF"/><stop offset="1" stop-color="#6044FB"/></linearGradient><linearGradient id="paint1_linear" x1="14.5" y1="12" x2="36.492" y2="35.507" gradientUnits="userSpaceOnUse"><stop stop-color="#B5A2F6"/><stop offset="1" stop-color="#433FFF"/></linearGradient><clipPath id="clip0"><path fill="#fff" transform="rotate(90 6.263 24.495)" d="M0 0h11.602v13.257H0z"/></clipPath><filter id="filter0_d" x="3.194" y="6.595" width="42.81" height="42.804" filterUnits="userSpaceOnUse" color-interpolation-filters="sRGB"><feFlood flood-opacity="0" result="BackgroundImageFix"/><feColorMatrix in="SourceAlpha" values="0 0 0 0 0 0 0 0 0 0 0 0 0 0 0 0 0 0 127 0" result="hardAlpha"/><feOffset dy="4"/><feGaussianBlur stdDeviation="2"/><feComposite in2="hardAlpha" operator="out"/><feColorMatrix values="0 0 0 0 0 0 0 0 0 0 0 0 0 0 0 0 0 0 0.25 0"/><feBlend in2="BackgroundImageFix" result="effect1_dropShadow"/><feBlend in="SourceGraphic" in2="effect1_dropShadow" result="shape"/></filter></defs></svg>