<svg width="48" height="48" viewBox="0 0 48 48" fill="none" xmlns="http://www.w3.org/2000/svg"><rect width="48" height="48" rx="24" fill="#13317D" fill-opacity=".4"/><path fill-rule="evenodd" clip-rule="evenodd" d="M31.633 19.925c.111-.39 0-.677-.53-.677h-1.75c-.445 0-.65.248-.761.52 0 0-.89 2.284-2.152 3.767-.408.43-.593.566-.816.566-.11 0-.272-.136-.272-.527v-3.65c0-.468-.129-.676-.5-.676h-2.75a.432.432 0 00-.446.423c0 .444.63.547.696 1.796v2.712c0 .595-.102.703-.325.703-.594 0-2.037-2.294-2.893-4.918-.168-.51-.336-.716-.784-.716H16.6c-.5 0-.6.248-.6.52 0 .489.593 2.909 2.763 6.11 1.447 2.185 3.484 3.37 5.339 3.37 1.113 0 1.25-.263 1.25-.717V26.88c0-.526.106-.63.458-.63.26 0 .705.136 1.743 1.19 1.187 1.248 1.383 1.809 2.05 1.809h1.75c.5 0 .75-.263.606-.783-.157-.517-.724-1.268-1.476-2.158-.408-.508-1.02-1.054-1.205-1.327-.26-.352-.186-.508 0-.82 0 0 2.132-3.162 2.355-4.235z" fill="#A6B1CE"/></svg>