<svg width="48" height="48" viewBox="0 0 48 48" fill="none" xmlns="http://www.w3.org/2000/svg"><rect width="48" height="48" rx="24" fill="#13317D" fill-opacity=".4"/><g fill="#A6B1CE"><path fill-rule="evenodd" clip-rule="evenodd" d="M31.67 24.6a2 2 0 00-1.41-1.402c-1.252-.34-6.26-.34-6.26-.34s-5.008 0-6.26.327a2.04 2.04 0 00-1.41 1.416C16 25.846 16 28.429 16 28.429s0 2.595.33 3.828a2 2 0 001.41 1.402C19.005 34 24 34 24 34s5.008 0 6.26-.328a2 2 0 001.41-1.402c.33-1.246.33-3.828.33-3.828s.013-2.596-.33-3.841zm-3.267 5.09v.231c0 .292.009.515.026.661.018.146.052.257.112.317.052.07.138.103.26.103.154 0 .258-.06.318-.18s.087-.317.095-.6l.889.051a.873.873 0 01.008.163c0 .42-.112.738-.345.944-.233.206-.56.309-.983.309-.509 0-.863-.163-1.07-.48-.207-.318-.31-.807-.31-1.476v-.798c0-.687.103-1.184.319-1.502.216-.317.578-.472 1.087-.472.353 0 .63.069.82.198.189.128.318.334.396.6.078.275.112.652.112 1.133v.78h-1.734v.018zm.13-1.922a.652.652 0 00-.104.317 6.243 6.243 0 00-.026.67v.326h.76v-.326c0-.292-.01-.515-.026-.67a.585.585 0 00-.113-.317.311.311 0 00-.241-.095c-.12-.008-.199.026-.25.095zm-5.115 3.87v-4.574h-1.035v3.63a.419.419 0 01-.181.206.445.445 0 01-.26.085c-.103 0-.18-.043-.223-.128-.044-.086-.07-.232-.07-.438v-3.355h-1.035v3.415c0 .429.07.738.216.935.147.198.371.3.673.3.44 0 .776-.214.992-.634h.026l.086.557h.81zm-2.493-5.432h-1.027v5.423H18.89v-5.423h-1.026v-.832h3.062v.832zm5.615.961c.138.129.242.335.302.627.06.283.086.686.095 1.21v.72c0 .678-.086 1.184-.25 1.502-.164.317-.414.48-.768.48a1.14 1.14 0 01-.535-.137.879.879 0 01-.362-.37h-.026l-.103.43h-.854v-6.487h1v2.411h.01c.085-.171.215-.317.379-.42a.934.934 0 01.534-.163c.242 0 .44.069.578.197zm-.69 3.27a5.92 5.92 0 00.043-.782h.009v-.6c0-.352-.009-.627-.035-.824-.025-.189-.06-.326-.12-.412a.28.28 0 00-.242-.12.42.42 0 00-.276.12.701.701 0 00-.18.31v2.59a.497.497 0 00.172.18c.069.043.146.06.232.06.104 0 .19-.042.26-.12.06-.077.111-.214.137-.403z"/><path d="M23.03 21.126c-.207-.137-.354-.352-.44-.652-.087-.292-.13-.687-.13-1.167v-.66c0-.49.052-.884.147-1.185.104-.3.259-.514.466-.652.215-.137.491-.206.836-.206.337 0 .613.069.82.206.207.138.354.36.448.652.095.292.147.687.147 1.184v.661c0 .489-.043.875-.138 1.175-.095.292-.241.515-.448.652-.207.138-.492.206-.846.206-.362-.008-.655-.077-.862-.214zm1.164-.72c.06-.147.086-.395.086-.73v-1.424c0-.326-.026-.567-.086-.721-.06-.154-.155-.223-.302-.223-.138 0-.241.077-.293.223-.06.154-.086.395-.086.72v1.425c0 .335.025.583.086.73.052.145.155.222.302.222.138 0 .233-.068.293-.223zm-3.683-1.176L19.338 15h1.026l.414 1.913c.104.472.181.875.233 1.21h.026c.035-.24.112-.635.233-1.201L21.701 15h1.027l-1.19 4.23v2.024H20.52V19.23h-.009zm8.151-2.54v4.573h-.81l-.087-.558h-.026c-.215.42-.552.635-.992.635-.302 0-.526-.103-.672-.3-.147-.197-.216-.506-.216-.935V16.69h1.035v3.355c0 .206.026.352.069.437.043.086.12.13.224.13a.445.445 0 00.259-.087.419.419 0 00.181-.206V16.69h1.035z"/></g></svg>